<svg xmlns="http://www.w3.org/2000/svg" width="408" height="408" viewBox="0 0 408 408"><g><g><path fill="#6c9894" d="M383.507 169.547c-16.022 0-33.492-3.416-53.462-10.356-3.246-1.127-6.409-2.29-9.467-3.415-18.324-6.74-34.15-12.56-54.688-6.148-8.032 2.51-17.927 5.602-24.078 11.727 1.068.913 2.094 1.992 3.081 3.185 2.733-2.931 7.538-5.395 12.662-7.328a1.331 1.331 0 0 1 1.785-.648c6.516-2.278 13.218-3.703 16.608-4.147 11.94-1.563 24.24 1.565 32.454 4.463 5.079 1.792 10.027 3.857 14.812 5.853 3.372 1.408 6.86 2.863 10.37 4.213 22.78 8.765 41.305 10.876 55.058 6.272a1.335 1.335 0 0 1 1.703 1.648 1.33 1.33 0 0 1-.42.856c-7.49 6.975-17.238 13.075-26.077 16.32-5.229 1.919-10.316 2.586-15.226 2.586-4.161 0-8.196-.48-12.084-1.082-13.244-2.054-23.536-6.952-33.489-11.688-6.403-3.048-13.024-6.198-20.272-8.475-5.56-1.746-18.863-3.399-30.603 2.325l.67 1.176c.624 1.095 1.228 2.156 1.808 3.143 9.933-5.346 23.106-4.482 39.165 2.572 4.379 1.923 8.58 3.982 12.645 5.975 15.262 7.482 29.68 14.549 48.654 11.606 20.013-3.103 30.447-14.16 42.53-26.962a593.698 593.698 0 0 1 5.174-5.436c-6.237 1.174-12.65 1.765-19.313 1.765zm-144.55-7.05a1.336 1.336 0 0 1-.113-1.885c6.532-7.371 17.465-10.787 26.25-13.532 21.404-6.684 37.624-.718 56.406 6.19 3.047 1.12 6.198 2.28 9.421 3.4 29.63 10.295 53.602 12.723 75.44 7.638a1.335 1.335 0 1 1 1.03 2.42c-.062.195-.17.378-.324.532-2.617 2.638-5.089 5.257-7.48 7.79-12.419 13.16-23.145 24.525-44.062 27.769a59.972 59.972 0 0 1-9.216.722c-15.381 0-27.896-6.135-41.023-12.57-4.038-1.98-8.215-4.027-12.542-5.928-15.207-6.677-27.555-7.594-36.716-2.724a1.335 1.335 0 0 1-2.356 1.235c-.985-1.55-2.036-3.396-3.148-5.35a485.61 485.61 0 0 0-1.194-2.088 1.33 1.33 0 0 1-.335-.58c-1.485-2.56-3.11-5.233-4.832-7.575a1.341 1.341 0 0 1-.651-.862c-1.29-1.663-2.633-3.117-4.012-4.184a1.34 1.34 0 0 1-.21-.202 1.33 1.33 0 0 1-.332-.216zm133.87 15.755c-3.738 0-7.683-.312-11.829-.933 1.283 3.132 2.333 6.439 3.35 9.639l.573 1.8c6.407-2.64 13.348-6.832 19.252-11.59-3.538.723-7.323 1.084-11.346 1.084zm-40.202-8.813a257.17 257.17 0 0 1-4.402-1.745c1.627 5.114 1.381 10.826 1.143 16.367-.079 1.826-.154 3.567-.16 5.25a80.246 80.246 0 0 0 7.742 1.596c2.172.337 4.39.634 6.649.825-.973-7.067-2.893-14.507-5.22-20.19a180.652 180.652 0 0 1-5.752-2.103zm-10.44-4.242c-3.588-1.497-7.268-3.033-11.012-4.456-.025 2.012.114 4.096.259 6.275.341 5.127.693 10.417-1.151 15.29 5.1 2.339 10.414 4.56 16.26 6.271.022-1.5.088-3.034.157-4.63.252-5.84.511-11.877-1.525-16.839a1.328 1.328 0 0 1-.086-.702c-.975-.405-1.943-.809-2.902-1.209zm-14.671-5.8c-3.146-1.109-6.907-2.254-11.012-3.139-.009 1.518.063 3.1.138 4.752.219 4.848.445 9.85-1.312 14.324 3.03 1.334 5.972 2.734 8.87 4.113 1.21.577 2.427 1.155 3.653 1.731 1.561-4.303 1.234-9.218.917-13.984-.164-2.46-.333-4.997-.24-7.434-.338-.122-.676-.243-1.014-.362zm-47.03 10.705c.105-3.657-.927-6.881-2.303-10.27-5.008 1.929-9.456 4.29-11.63 6.856 1.514 2.093 2.937 4.4 4.285 6.703 3.16-1.56 6.43-2.614 9.648-3.289zm15.595-.727c1.077-3.078.85-8.033-.666-14.113a1.362 1.362 0 0 1-.016-.07c-4 .603-9.495 1.923-14.706 3.725 1.41 3.478 2.48 6.825 2.47 10.706 4.688-.698 9.166-.646 12.918-.248zm7.498 1.461c3.22 1.011 6.306 2.185 9.297 3.44 1.514-3.943 1.303-8.615 1.098-13.146-.08-1.791-.164-3.635-.134-5.399-5.007-.9-10.413-1.349-15.772-.862 1.108 4.524 2.014 10.467.702 14.867 1.913.312 3.549.704 4.81 1.1zm78.848 18.88c-.208-.647-.415-1.297-.622-1.95-1.028-3.235-2.09-6.58-3.378-9.684a1.333 1.333 0 0 1 .073-1.172c-5.299-.934-10.912-2.357-16.83-4.266 2.09 5.694 3.78 12.664 4.646 19.26 5.2.217 10.594-.252 16.11-2.188zm-128.19-33.119c-.126 0-.253-.018-.379-.055a1.335 1.335 0 0 1-1.086-1.906c3.747-7.832 8.69-13.288 15.552-17.17 9.475-5.36 13.31-6.602 22.498-.749l2.675 1.704-3.088.722c-1.034.242-2.14.49-3.3.75-10.789 2.42-27.093 6.075-31.66 15.93a1.335 1.335 0 0 1-1.212.774zm26.253-21.057c-3.105 0-6.107 1.565-10.852 4.249-2.791 1.58-5.21 3.4-7.343 5.557 7.322-4.267 16.961-6.429 24.22-8.056-2.301-1.197-4.182-1.75-6.025-1.75zm57.83 9.447c-1.686 0-3.392-.091-5.12-.282-12.123-1.342-28.995-7.934-41.015-13.228a1.33 1.33 0 0 1-.733-.813 1.336 1.336 0 0 1 1.139-2.335c5.796 1.299 13.411-.974 19.942-4.173a1.34 1.34 0 0 1 .995-.498 61.129 61.129 0 0 0 4.254-2.4c5.474-3.387 16.161-12.554 17.069-18 .073-.443.357-.799.732-.982.096-.087.206-.162.33-.22 19.079-8.957 45.045-9.86 66.15-2.297l.058.022a1.335 1.335 0 0 1 1.093 2.126c-3.947 5.37-8.684 10.234-13.266 14.938-1.135 1.165-2.268 2.328-3.385 3.496-11.035 11.523-28.042 24.646-48.243 24.646zm-4.827-2.936c2.789.308 5.525.34 8.199.135-2.14-3.285-3.985-6.745-5.774-10.1-2.482-4.654-5.048-9.465-8.38-13.738a1.33 1.33 0 0 1-.275-.957c-3.163 2.77-6.28 5.026-8.076 6.137a62.193 62.193 0 0 1-3.532 2.027c1.364 2.024 2.756 4.762 4.21 7.626 1.26 2.478 2.56 5.04 3.772 6.936l.012.019c3.49.906 6.825 1.581 9.844 1.915zm51.141-23.557a589.979 589.979 0 0 1 3.402-3.512c4.078-4.188 8.28-8.503 11.883-13.143-17.172-5.823-37.426-5.987-54.226-.715 1.723 2.032 3.35 4.343 4.93 6.588 1.447 2.056 2.943 4.182 4.498 6.072 4.141 5.035 9.116 11.768 11.392 19.706 7.072-4.399 13.205-9.862 18.121-14.996zm-47.283-14.162c-.948 3.78-4.742 8.165-8.752 11.86.395.003.784.18 1.046.514 3.473 4.455 6.093 9.37 8.628 14.123 1.929 3.617 3.923 7.357 6.255 10.802.05.074.092.15.125.23 6.999-1 13.543-3.57 19.481-6.954-2.04-7.759-6.98-14.448-11.075-19.427-1.618-1.967-3.144-4.135-4.62-6.231-1.843-2.62-3.584-5.093-5.481-7.198a1.219 1.219 0 0 1-.006-.007 67.313 67.313 0 0 0-5.601 2.288zm-38.938 26.918c6.702 2.814 14.32 5.73 21.534 7.857-.822-1.49-1.65-3.12-2.461-4.716-1.43-2.815-2.902-5.712-4.237-7.623-4.718 2.254-9.971 4.034-14.836 4.482zm71.38-10.442c-.904 0-1.82-.157-2.71-.474-2.22-.79-3.944-2.47-4.73-4.606-1.002-2.728-1.015-5.38-.038-7.468.756-1.615 2.047-2.858 3.844-3.705a1.33 1.33 0 0 1 .48-.267c.19-.059.377-.112.563-.159.06-.02.122-.034.183-.045 4.714-1.11 8.216 1.494 9.644 4.71 1.566 3.528.9 8.43-3.403 10.977a7.513 7.513 0 0 1-3.833 1.037zm-1.82-14.12c-1.583.584-2.673 1.493-3.24 2.704-.673 1.438-.628 3.362.127 5.415.51 1.39 1.647 2.488 3.12 3.012 1.466.522 3.03.396 4.286-.346 3.099-1.833 3.376-5.222 2.323-7.595-.945-2.127-3.168-4.017-6.616-3.19zm-14.823 25.907c-.614 1.249-2.357 1.64-3.407.682-.803-.733-1.013-1.652-.627-2.674.18-.479.711-.873 1.18-1.04.237-.082.477-.122.72-.12h-.007c1.682-.226 2.847 1.714 2.141 3.152zm-5.285-10.443c.532.467.843 1.135.897 1.833.119 1.566-1.314 2.863-2.862 2.568-1.024-.196-1.764-1.037-1.92-2.015-.124-.39-.155-.8-.068-1.206.155-.726.688-1.47 1.438-1.676.893-.245 1.8-.13 2.515.496zm-3.973-4.56c-.6 3.149-5.494 2.215-4.893-.933zm-13.215 17.442c.219.752.122 1.53-.407 2.135a2.168 2.168 0 0 1-2.026.7 2.17 2.17 0 0 1-1.626-1.397c-.01-.026-.014-.059-.021-.087.151.17.323.349.537.545a1.952 1.952 0 0 1-.634-1.374c.017-.274.08-.542.216-.754.063-.1.047-.177-.005-.233.283-.57.819-1.02 1.565-1.1 1.024-.113 2.108.556 2.401 1.565zm-4.177.522a2.34 2.34 0 0 0 .097.829c-1.55-1.726-.16-2.098.114-1.816a2.001 2.001 0 0 0-.211.987zm-2.167-9.663c.776.148 1.556.709 1.82 1.453.215.602.04 1.158-.186 1.737-.016.042-.204.082-.22.122-.786 2.01-4.543 1.358-4.543-.801v-.131c0-.818.616-1.554 1.32-2.033.49-.332 1.226-.458 1.809-.347zm45.34-15.613a2.41 2.41 0 0 1 1.897 2.793 2.41 2.41 0 0 1-2.792 1.897c-1.279-.245-2.142-1.514-1.898-2.792a2.41 2.41 0 0 1 2.793-1.898zm5.577 71.94l.291.157c.807.429.93 1.582.147 2.114-.785.534-1.806-.008-1.912-.916l-.038-.325c-.092-.786.817-1.4 1.512-1.03zm-4.104 1.745c-.15.787-2.338.37-2.188-.418zm-12.433-3.203c.057.02.11.053.16.09.227.132.41.336.555.551.269.403.241.949-.079 1.314-.346.396-.824.421-1.287.258-.718-.254-1.262-1.35-.602-1.961.385-.355.76-.423 1.253-.252zm-4.753 1.554c-.15.787-2.142.407-1.992-.38zm-10.344-6.309c.508.546.284 1.395-.494 1.502.192-.026-.281.048-.321.048a5.254 5.254 0 0 1-.52-.017 1.123 1.123 0 0 1-.722-.335c-.173-.179-.319-.44-.242-.7.288-.992 1.6-1.25 2.3-.498zm-4.523-.606c-.3 1.573-2.009 1.247-1.708-.327zm-4.967-2.561c.218.011.46.134.608.29.367.38.376.88.042 1.248.089-.087.143-.137-.119.163a1.64 1.64 0 0 1-.255.216c-.236.126-.449.233-.727.227-.668-.013-1.246-.52-1.109-1.237.09-.47.447-.743.87-.812.033-.016.05-.027.099-.048l.262-.055c.11-.015.219-.013.33.008zm-8.648-2.485c-.15.787-2.056.423-1.906-.365zm-3.34-3.516c.034.014.07.024.1.048.747.455.561 1.507-.314 1.648-.84.134-1.575-.55-1.423-1.398.15-.844 1.255-.906 1.637-.298zm-10.371-3.184c.043.013.085.026.13.037a.927.927 0 0 1-.347 1.82 5.53 5.53 0 0 1-.135-.012c-1.21-.115-.815-2.183.352-1.845zm-5.158.651c-.15.787-2.24.388-2.09-.4zm-4.369-.834c-.15.788-1.896.454-1.745-.333zm-8.553-1.928l.281.232c.455.374.39 1.112-.085 1.435-.474.322-1.186.11-1.366-.449l-.112-.348c-.25-.77.656-1.386 1.282-.87zm-4.32 1.104c-.15.785-1.932.445-1.782-.342zm-3.735.917c-.15.787-1.884.456-1.733-.33zm-8.826.793l.27.245c.393.359.369 1.002-.08 1.307-.448.305-1.053.087-1.243-.407l-.13-.343c-.263-.69.637-1.298 1.183-.803zm-3.469 2.57c-.15.787-1.957.442-1.807-.346zm132.424-7.89c-1.151 0-2.283-.172-3.348-.532-3.635-1.23-5.846-4.478-6.065-8.91-.153-3.091 2.687-5.6 5.405-6.153 2.285-.464 5.192.314 6.502 3.887a1.335 1.335 0 1 1-2.506.92c-.816-2.226-2.333-2.419-3.464-2.19-1.813.368-3.342 1.96-3.27 3.405.166 3.374 1.638 5.626 4.255 6.512 3.353 1.135 7.807-.284 10.359-3.3 2.607-3.083 2.77-7.149.46-11.45-3.877-7.216-14.222-3.963-21.777-1.587-.745.234-1.462.46-2.143.665-.43.13-.862.27-1.297.418a68.346 68.346 0 0 1-3.34 1.57 1.337 1.337 0 0 1-.905.061l-.542.23c.293.052.583.115.87.19 2.55.673 4.523 2.187 5.865 4.5 1.848 3.188 1.783 6.592-.18 9.34-1.697 2.374-4.515 3.83-7.21 3.83-.464 0-.925-.043-1.375-.133-2.545-.503-4.384-2.42-5.048-5.26-.45-1.923-.166-3.43.844-4.482 1.704-1.775 4.684-1.267 5.018-1.204a1.336 1.336 0 0 1-.5 2.623c-.604-.112-2.039-.151-2.595.433-.424.446-.325 1.346-.167 2.022.426 1.826 1.452 2.95 2.966 3.25 2.036.4 4.516-.703 5.894-2.63 1.346-1.886 1.362-4.176.043-6.45-.986-1.7-2.371-2.765-4.235-3.256-2.344-.617-5.052-.227-7.455.461-2.052.912-4.164 1.816-6.325 2.627a9.21 9.21 0 0 0-.166.093 1.332 1.332 0 0 1-.574.18c-5.932 2.153-12.234 3.545-18.736 2.45a1.334 1.334 0 0 1-1.095-1.538 1.331 1.331 0 0 1 1.538-1.094c6.142 1.03 12.08-.338 17.864-2.497.908-.499 3.443-1.81 6.538-2.718.822-.366 1.64-.735 2.456-1.103 3.286-1.483 6.416-2.896 9.48-3.95 5.803-2.964 12.506-7.64 11.207-12.993-.456-1.877-2.033-2.448-2.933-2.622-1.614-.31-3.364.205-4.073 1.201-.545.766-.456 1.787.265 3.036a1.334 1.334 0 1 1-2.312 1.335c-1.692-2.93-.806-4.966-.128-5.919 1.319-1.85 4.097-2.786 6.754-2.274 2.563.494 4.44 2.218 5.022 4.614.9 3.712-.685 7.367-4.63 10.829 7.253-1.908 15.58-2.748 19.468 4.489 2.824 5.256 2.542 10.517-.773 14.437-2.483 2.935-6.29 4.638-9.906 4.638zm-186.47-9.102c-.7 0-1.289-.546-1.331-1.255-.594-9.832 4.722-19.978 8.994-28.13 10.409-19.86 26.096-27.112 44.26-35.508 2.947-1.363 5.995-2.771 9.067-4.26 28.234-13.67 46.9-28.904 58.746-47.94a1.334 1.334 0 0 1 2.44.982c.093.182.146.387.147.605.014 3.716.118 7.316.22 10.797.522 18.087.974 33.708-11.524 50.794-11.832 16.174-27.409 21.503-43.9 27.145-4.256 1.456-8.657 2.96-13.06 4.677-15.476 6.032-24.854 14.116-27.89 24.036a1.335 1.335 0 0 1-.79 2.54c-1.794-.4-3.843-.962-6.012-1.557-.752-.206-1.527-.419-2.317-.631a1.337 1.337 0 0 1-.654-.175c-2.86-.76-5.895-1.501-8.768-1.938a1.357 1.357 0 0 1-.367.05c-.253 0-.495-.071-.703-.2-2.089-.264-4.067-.343-5.796-.123a1.296 1.296 0 0 1-.292.006 1.335 1.335 0 0 1-.47.085zm53.089-24.58c4.456-1.737 8.884-3.252 13.166-4.716 16.083-5.503 31.274-10.7 42.61-26.196 11.956-16.347 11.517-31.544 11.008-49.14-.07-2.44-.143-4.94-.185-7.501-12.183 17.84-30.591 32.337-57.534 45.384-3.094 1.498-6.152 2.912-9.111 4.28-17.722 8.192-33.027 15.267-43.015 34.324-3.906 7.453-8.716 16.635-8.735 25.317 1.4-.11 2.89-.073 4.432.073-.14-4.005 1.515-9.144 3.772-14.135a1.332 1.332 0 0 1 .805-1.723c2.996-6.217 6.726-11.962 8.81-14.674 7.338-9.544 18.246-16.03 26.104-19.792 4.852-2.32 9.804-4.357 14.594-6.326 3.385-1.392 6.886-2.832 10.329-4.362 22.305-9.91 36.895-21.517 43.367-34.498a1.334 1.334 0 0 1 2.368-.04c.205.243.323.561.311.905-.366 10.228-2.946 21.435-6.9 29.978-4.326 9.34-11.327 15.312-18.247 20.374-10.817 7.914-21.557 11.727-31.944 15.415-6.682 2.373-13.593 4.827-20.328 8.343-5.167 2.697-15.743 10.937-19.997 23.284l1.304.357c1.216.334 2.394.657 3.503.945 3.242-10.802 13.168-19.506 29.513-25.876zm-32.407 14.735c-2.512-2.66-5.52-4.212-8.889-5.635-2.178 4.905-3.654 9.72-3.377 13.072 2.55.409 5.187 1.034 7.769 1.71 1.132-3.338 2.699-6.394 4.497-9.147zm10.515-11.542c-1.417-2.94-5.081-6.281-10.451-9.509a1.355 1.355 0 0 1-.062-.04c-2.402 3.257-5.354 8.076-7.764 13.034 3.456 1.463 6.58 3.074 9.317 5.825 2.822-3.808 6.025-6.938 8.96-9.31zm6.334-4.27c2.992-1.562 6.003-2.914 9.006-4.14-1.718-3.86-5.171-7.014-8.52-10.072-1.323-1.21-2.686-2.455-3.911-3.723-4.177 2.905-8.319 6.41-11.764 10.542 3.983 2.415 8.826 5.977 11.01 10.016 1.574-1.132 3.007-2.012 4.179-2.623zm20.67-8.492c1.264-.448 2.533-.9 3.806-1.359-1.938-4.145-5.645-7.39-9.239-10.535-1.855-1.624-3.768-3.298-5.427-5.088-.324.153-.649.306-.972.46-3.01 1.44-6.479 3.291-10.007 5.568 1.067 1.079 2.235 2.147 3.457 3.263 3.583 3.272 7.28 6.65 9.2 11.054 3.087-1.198 6.158-2.289 9.182-3.363zm22.256-9.343a161.44 161.44 0 0 1-3.165-3.386c-3.95-4.306-8.036-8.758-12.984-10.828a1.328 1.328 0 0 1-.557-.435c-.983.406-1.96.808-2.926 1.205-3.59 1.476-7.272 2.99-10.919 4.628 1.405 1.441 2.977 2.817 4.621 4.256 3.866 3.383 7.855 6.875 9.997 11.624 5.26-1.952 10.588-4.14 15.933-7.064zm9.004-5.71c1.775-1.299 3.554-2.658 5.287-4.12-5.686-4.308-12.304-8.212-17.968-10.586-1.797.873-3.65 1.733-5.557 2.58a254.588 254.588 0 0 1-4.344 1.88c4.766 2.466 8.631 6.679 12.38 10.765 1.236 1.347 2.414 2.63 3.6 3.826a80.213 80.213 0 0 0 6.602-4.345zm17.173-18.858c-.613-.315-1.229-.634-1.847-.954-3.005-1.556-6.112-3.165-9.207-4.445a1.333 1.333 0 0 1-.778-.88c-4.407 3.085-9.382 6.049-14.918 8.884 5.506 2.549 11.63 6.284 16.908 10.333 3.829-3.523 7.31-7.669 9.842-12.938zm6.506-24.252c-3.84 5.811-9.28 11.318-16.281 16.494 3.112 1.303 6.183 2.894 9.156 4.433.57.296 1.14.59 1.707.882 2.662-6.397 4.607-14.27 5.418-21.81zm-121.732 92.018c-.55 0-1.066-.343-1.26-.891-2.888-8.191-3.252-15.543-1.144-23.14 2.91-10.489 4.745-14.078 15.38-16.436l3.097-.687-1.673 2.695c-.56.9-1.166 1.857-1.801 2.86-5.92 9.34-14.866 23.454-11.126 33.653a1.335 1.335 0 0 1-.61 1.63 1.326 1.326 0 0 1-.863.316zm10.336-37.017c-6.643 2.095-7.844 5.329-10.167 13.7-.858 3.09-1.281 6.088-1.264 9.122 2.162-8.194 7.448-16.538 11.43-22.822zm-.585-8.029c-.214 0-.424-.052-.611-.148a1.335 1.335 0 0 1-.846-2.457c5.02-3.181 8.796-10.17 11.151-17.048a1.343 1.343 0 0 1 .352-1.061 61.092 61.092 0 0 0 1.31-4.702c1.477-6.267 2.552-20.306-.658-24.797a1.333 1.333 0 0 1-.176-1.212c.006-.13.032-.26.078-.39 7.158-19.826 24.881-38.824 45.152-48.399a1.34 1.34 0 0 1 .053-.024 1.337 1.337 0 0 1 2.278.728c1.008 6.592 1.097 13.386 1.183 19.957.022 1.623.043 3.242.077 4.854.375 17.281-2.879 40.845-20.505 54.96-9.52 7.623-26.112 14.892-38.355 19.649-.159.061-.322.09-.483.09zm37.17-21.823a43.937 43.937 0 0 0 5.892-5.701c-3.834-.81-7.583-1.95-11.218-3.058-5.048-1.536-10.266-3.126-15.646-3.79a1.33 1.33 0 0 1-.87-.481c-.279 4.195-.888 7.994-1.372 10.049a62.184 62.184 0 0 1-1.065 3.93c2.398.466 5.32 1.42 8.378 2.417 2.639.86 5.367 1.751 7.563 2.235l.022.006c3.11-1.827 5.945-3.708 8.316-5.607zm19.504-52.819c-.035-1.62-.056-3.246-.078-4.876-.076-5.849-.155-11.877-.89-17.709-16.26 8.023-30.697 22.23-38.85 37.837 2.654.219 5.437.702 8.14 1.172 2.478.43 5.042.875 7.479 1.112 6.489.634 14.767 1.878 21.99 5.882 1.89-8.111 2.363-16.311 2.21-23.418zm-43.448 23.42c2.002 3.343 2.42 9.126 2.198 14.574a1.33 1.33 0 0 1 1.102-.374c5.608.693 10.94 2.316 16.095 3.886 3.92 1.193 7.972 2.427 12.054 3.214.088.017.172.042.251.074 4.243-5.655 7.052-12.1 8.859-18.692-6.93-4.044-15.153-5.282-21.569-5.908-2.536-.247-5.15-.7-7.678-1.14-3.154-.548-6.132-1.065-8.96-1.212h-.01a67.321 67.321 0 0 0-2.342 5.578zm-8.5 46.567c6.73-2.75 14.178-6.074 20.784-9.671-1.633-.472-3.37-1.038-5.07-1.593-3.003-.98-6.095-1.989-8.392-2.396-1.742 4.93-4.198 9.903-7.322 13.66zm37.413-55.494a7.549 7.549 0 0 1-3.175-.695c-2.637-1.22-4.522-3.085-5.308-5.254-.608-1.676-.574-3.467.098-5.337.012-.18.061-.358.15-.527a11.1 11.1 0 0 1 .285-.51c.03-.058.063-.113.1-.164 2.55-4.118 6.864-4.751 10.15-3.487 3.6 1.386 6.596 5.325 5.353 10.168-.559 2.183-2.099 4.013-4.224 5.023a7.987 7.987 0 0 1-3.429.783zm-5.595-11.059c-.706 1.532-.833 2.944-.378 4.2.542 1.494 1.934 2.822 3.92 3.74 1.344.622 2.924.595 4.336-.076 1.408-.668 2.422-1.862 2.784-3.274.895-3.488-1.305-6.08-3.727-7.013-2.172-.837-5.077-.603-6.935 2.423zm7.838 28.798c.449 1.319-.507 2.827-1.926 2.892-1.086.051-1.884-.452-2.334-1.448-.21-.464-.115-1.12.099-1.57.11-.226.253-.425.429-.597l-.011.01c1.03-1.35 3.226-.803 3.743.713zm-11.12-3.645a2.708 2.708 0 0 1 1.93.661c1.192 1.022 1.095 2.954-.208 3.84-.861.584-1.981.515-2.783-.068a2.35 2.35 0 0 1-.901-.805c-.404-.621-.553-1.526-.168-2.203.458-.803 1.182-1.362 2.13-1.425zm-6.259-.747c1.802 2.65-2.319 5.45-4.12 2.799zm3.214 22.01c.685.376 1.167.994 1.221 1.796.052.757-.31 1.5-.938 1.927a2.17 2.17 0 0 1-2.136.162c-.025-.01-.052-.032-.078-.044.229.01.475.017.767.004a1.959 1.959 0 0 1-1.422-.523c-.18-.207-.325-.44-.38-.686-.026-.116-.091-.16-.169-.161a1.96 1.96 0 0 1 .33-1.886c.644-.803 1.884-1.096 2.805-.59zm-2.586 3.322c.192.216.422.394.655.519-2.315-.127-1.596-1.373-1.204-1.366.11.325.295.613.55.847zm-8.213-5.453a2.26 2.26 0 0 1 2.224-.17c.58.275.908.73 1.157 1.3l.053.12c.866 1.977-2.016 3.936-3.535 2.401l-.092-.09c-.575-.584-.908-1.293-.748-2.129.112-.58.451-1.1.941-1.432zm20.869-42.948c1.076-.73 2.585-.443 3.317.632.731 1.077.443 2.585-.633 3.318a2.412 2.412 0 0 1-3.317-.634c-.73-1.076-.441-2.585.633-3.316zm54.814 46.926c.105-.033.21-.065.315-.095.874-.267 1.777.461 1.6 1.39-.178.932-1.283 1.273-2 .705l-.257-.205c-.62-.489-.412-1.567.342-1.795zm-1.893 3.802c.807 1.19-1.037 2.443-1.843 1.254zm-10.48 7.71a.607.607 0 0 1 .174-.05c.257-.067.53-.054.786-.003.473.095.838.5.872.985.035.525-.285.881-.729 1.093-.685.328-1.846-.063-1.812-.963.022-.522.241-.835.708-1.062zm-2.84 3.278c.45.661-1.228 1.803-1.678 1.14zm-11.548 3.184c.742.028 1.183.785.714 1.41.112-.149-.168.235-.195.263-.12.127-.25.242-.382.356a1.123 1.123 0 0 1-.745.274c-.25-.005-.537-.086-.668-.324-.498-.907.25-2.015 1.276-1.979zm-3.853 2.438c.9 1.325-.54 2.304-1.441.978zm-5.099 2.032a.98.98 0 0 1 .635-.223c.53.008.891.359.913.855.002-.126.004-.204.03.196.002.113-.006.225-.027.333-.077.257-.152.483-.353.674-.482.464-1.25.516-1.66-.089-.27-.395-.21-.841.042-1.19.012-.036.017-.055.036-.103.048-.076.097-.149.145-.226.068-.087.148-.162.239-.227zm-8.098 4.027c.45.663-1.155 1.754-1.605 1.09zm-4.27 1.059c.035-.015.067-.034.105-.04.85-.205 1.462.672.942 1.389-.499.69-1.5.725-1.994.018-.49-.704.246-1.528.948-1.367zm-9.935 4.23l.117-.063a.927.927 0 0 1 1.04 1.533l-.103.083c-.936.776-2.12-.965-1.054-1.552zm-3.413 3.776c.45.664-1.311 1.86-1.761 1.198zm-3.68 2.5c.645.95-.825 1.947-1.47 1zm-7.187 5.016c.122-.011.243-.024.364-.036.586-.055 1.061.514.954 1.076-.107.563-.76.918-1.282.65-.109-.057-.218-.11-.326-.166-.72-.37-.515-1.446.29-1.524zm-2.499 3.504c.658.969-.843 1.988-1.501 1.02zm-1.992 3.29c.64.941-.82 1.934-1.46.993zm-5.455 7.134c.121-.005.242-.013.364-.018.53-.025.97.448.868.98-.102.533-.683.807-1.167.591l-.334-.15c-.675-.302-.467-1.37.269-1.403zm-.86 3.936c.666.983-.855 2.017-1.523 1.035zm43.237-65.492a1.334 1.334 0 0 1-.776-2.422c5.07-3.611 8.3-8.774 10.863-14.386a34.245 34.245 0 0 1 2.714-6.578c.32-.833.635-1.667.949-2.497 1.281-3.39 2.502-6.617 3.93-9.54 3.825-11.72.936-15.714-1.282-17.065-1.652-1.007-3.171-.295-3.929.218-1.36.922-2.233 2.525-2.03 3.73.155.927.94 1.586 2.332 1.959a1.335 1.335 0 1 1-.69 2.579c-3.268-.876-4.082-2.942-4.276-4.096-.377-2.24.926-4.865 3.168-6.382 2.162-1.465 4.709-1.572 6.814-.288 3.261 1.987 4.725 5.692 4.383 10.929 3.78-6.477 9.073-12.958 16.94-10.593 5.713 1.72 9.235 5.642 9.662 10.757.422 5.052-2.3 10.214-6.47 12.275-3.442 1.699-7.3.966-10.587-2.012-2.294-2.077-2.06-5.859-.53-8.172 1.287-1.943 3.894-3.45 7.347-1.848a1.335 1.335 0 1 1-1.123 2.422c-2.15-.996-3.36-.06-3.997.9-1.022 1.543-.977 3.748.095 4.72 2.504 2.267 5.137 2.82 7.613 1.596 3.174-1.569 5.32-5.72 4.991-9.658-.336-4.024-3.096-7.015-7.77-8.422-7.84-2.358-12.859 7.253-16.52 14.273-.362.694-.71 1.36-1.046 1.989-.212.397-.42.803-.624 1.216a68.353 68.353 0 0 1-1.25 3.467 1.33 1.33 0 0 1-.595.682l-.222.546c.244-.17.495-.33.75-.48 2.278-1.327 4.743-1.652 7.328-.965 3.562.947 5.923 3.402 6.477 6.733.563 3.374-.859 6.945-3.456 8.684a6.04 6.04 0 0 1-3.395 1.044c-1.283 0-2.612-.398-3.894-1.194-1.676-1.042-2.542-2.308-2.572-3.764-.05-2.462 2.416-4.21 2.698-4.4a1.335 1.335 0 1 1 1.5 2.207c-.504.35-1.548 1.336-1.528 2.141.015.616.721 1.181 1.311 1.548 1.593.989 3.112 1.058 4.395.2 1.726-1.156 2.697-3.691 2.308-6.028-.381-2.285-1.99-3.915-4.53-4.59-1.897-.506-3.63-.28-5.292.689-2.1 1.223-3.745 3.43-4.96 5.628-.804 2.087-1.655 4.208-2.605 6.3l-.052.185c-.053.203-.15.383-.278.531-2.673 5.72-6.146 11.16-11.516 14.984a1.329 1.329 0 0 1-.773.248zm-94.187 92.417c-.315 0-.63-.11-.885-.336-7.372-6.531-10.787-17.465-13.531-26.25-6.684-21.402-.72-37.623 6.187-56.404 1.122-3.048 2.28-6.2 3.4-9.425 10.297-29.632 12.725-53.603 7.641-75.439A1.335 1.335 0 0 1 166.73.61c.194.062.377.17.53.323 2.638 2.617 5.257 5.089 7.79 7.48 13.16 12.419 24.525 23.145 27.769 44.063 3.071 19.803-4.175 34.587-11.848 50.238-1.98 4.038-4.027 8.214-5.927 12.541-6.678 15.209-7.593 27.556-2.726 36.717a1.334 1.334 0 0 1 1.238 2.355c-1.552.985-3.398 2.037-5.352 3.15-.678.387-1.378.785-2.088 1.194a1.336 1.336 0 0 1-.58.335c-2.56 1.485-5.232 3.108-7.573 4.83a1.332 1.332 0 0 1-.864.652c-1.664 1.291-3.118 2.633-4.185 4.011-.06.078-.127.148-.2.209a1.336 1.336 0 0 1-1.217.785zm21.102-55.311c1.923-4.378 3.982-8.58 5.974-12.643 7.483-15.264 14.55-29.68 11.607-48.654-3.104-20.014-14.16-30.448-26.963-42.53-1.775-1.677-3.593-3.392-5.434-5.173 3.998 21.229 1.234 44.496-8.592 72.772-1.128 3.247-2.291 6.41-3.417 9.47-6.738 18.325-12.558 34.15-6.145 54.687 2.51 8.032 5.6 17.926 11.726 24.077.912-1.068 1.992-2.094 3.185-3.081-2.932-2.733-5.396-7.539-7.329-12.664a1.332 1.332 0 0 1-.648-1.785c-2.278-6.515-3.702-13.217-4.146-16.608-1.561-11.94 1.566-24.238 4.464-32.452 1.792-5.08 3.857-10.029 5.854-14.815 1.407-3.371 2.862-6.857 4.212-10.366 8.763-22.78 10.873-41.305 6.27-55.058a1.335 1.335 0 0 1 1.647-1.704c.316.028.624.17.858.42 6.974 7.491 13.074 17.24 16.32 26.079 3.543 9.656 2.817 18.832 1.503 27.31-2.053 13.241-6.95 23.532-11.686 33.483-3.048 6.404-6.2 13.027-8.476 20.277-1.746 5.56-3.398 18.865 2.325 30.603.394-.226.786-.449 1.175-.67 1.096-.624 2.157-1.229 3.144-1.809-5.345-9.93-4.48-23.103 2.572-39.166zm-12.496 33.335c-3.664-.106-6.885.926-10.27 2.301 1.927 5.008 4.288 9.457 6.855 11.631 2.093-1.514 4.4-2.936 6.703-4.285-1.56-3.16-2.613-6.43-3.288-9.647zm-.727-15.596c-3.08-1.077-8.033-.85-14.113.667a1.423 1.423 0 0 1-.071.015c.603 4.001 1.923 9.496 3.725 14.705 3.478-1.407 6.831-2.475 10.707-2.468-.697-4.688-.646-9.167-.248-12.92zm1.46-7.498c1.011-3.22 2.185-6.306 3.44-9.297-3.942-1.514-8.613-1.302-13.142-1.099-1.793.082-3.638.164-5.402.134-.9 5.007-1.35 10.414-.863 15.773 4.524-1.108 10.467-2.015 14.868-.703.311-1.912.703-3.547 1.099-4.808zm8.612-20.623c.576-1.21 1.155-2.426 1.73-3.651-4.302-1.56-9.217-1.233-13.984-.916-2.46.163-4.996.332-7.433.24-.122.337-.242.675-.362 1.013-1.11 3.146-2.255 6.906-3.14 11.011 1.518.008 3.1-.062 4.754-.137 4.849-.217 9.848-.444 14.32 1.311 1.336-3.03 2.736-5.973 4.115-8.871zm9.13-22.344a162.669 162.669 0 0 1-4.637-.154c-5.839-.25-11.873-.51-16.833 1.525a1.319 1.319 0 0 1-.702.087c-.404.974-.807 1.94-1.207 2.898-1.497 3.588-3.034 7.27-4.457 11.015 2.012.024 4.096-.114 6.275-.259 5.127-.342 10.416-.693 15.29 1.15 2.339-5.1 4.56-10.414 6.271-16.262zm2.328-10.402c.337-2.173.634-4.392.825-6.651-7.067.974-14.507 2.894-20.188 5.218a180.643 180.643 0 0 1-2.104 5.755 256.078 256.078 0 0 1-1.744 4.401c5.111-1.625 10.821-1.38 16.36-1.143 1.829.079 3.57.154 5.256.16a80.195 80.195 0 0 0 1.595-7.74zm-1.191-25.48c-.647.209-1.298.415-1.95.622-3.235 1.027-6.58 2.09-9.684 3.38a1.329 1.329 0 0 1-1.172-.073c-.934 5.298-2.356 10.911-4.266 16.83 5.695-2.09 12.665-3.78 19.261-4.648.217-5.201-.252-10.596-2.19-16.11zm-12.548-21.748c1.393 6.825 1.442 14.566.15 23.176 3.133-1.284 6.44-2.334 9.64-3.35.602-.192 1.202-.382 1.8-.574-2.641-6.406-6.833-13.348-11.59-19.252zM155.212 175.36a1.32 1.32 0 0 1-.576-.131c-7.833-3.75-13.29-8.69-17.172-15.552-5.359-9.475-6.599-13.31-.747-22.497l1.704-2.675.722 3.088c.242 1.033.49 2.139.75 3.298 2.418 10.79 6.073 27.095 15.93 31.66.606.282.902.961.72 1.585a1.336 1.336 0 0 1-1.331 1.224zm-17.922-33.874c-3.216 6.178-1.779 9.315 2.498 16.877 1.579 2.791 3.398 5.208 5.556 7.341-4.265-7.321-6.427-16.96-8.054-24.218zm4.762-46.977c.308-2.79.34-5.526.135-8.2-3.285 2.14-6.744 3.984-10.1 5.773-4.654 2.482-9.466 5.048-13.739 8.38a1.328 1.328 0 0 1-.957.276c2.77 3.163 5.026 6.281 6.137 8.077a62.237 62.237 0 0 1 2.026 3.532c2.026-1.366 4.767-2.759 7.634-4.215 2.474-1.258 5.033-2.558 6.928-3.767l.02-.013c.907-3.49 1.581-6.824 1.916-9.844zm-23.557-51.141c-1.17-1.12-2.334-2.255-3.502-3.392-4.19-4.081-8.51-8.288-13.154-11.893-5.823 17.17-5.986 37.424-.715 54.225 2.032-1.723 4.343-3.35 6.587-4.93 2.056-1.447 4.182-2.943 6.071-4.498 5.037-4.142 11.773-9.118 19.708-11.392-4.398-7.072-9.862-13.204-14.995-18.12zM104.332 90.65c3.78.948 8.166 4.742 11.86 8.752.002-.395.179-.784.514-1.046 4.455-3.475 9.371-6.095 14.125-8.63 3.616-1.929 7.356-3.923 10.8-6.253.074-.05.151-.093.23-.126-.999-6.999-3.57-13.543-6.953-19.481-7.756 2.037-14.448 6.979-19.43 11.075-1.966 1.618-4.134 3.144-6.23 4.62-2.619 1.843-5.092 3.584-7.198 5.48l-.006.007a67.326 67.326 0 0 0 2.288 5.602zm26.917 38.94c2.814-6.703 5.73-14.321 7.858-21.537-1.488.821-3.116 1.648-4.71 2.458-2.818 1.432-5.718 2.904-7.63 4.24 2.255 4.719 4.034 9.972 4.482 14.838zm-29.193-37.502c-8.957-19.082-9.858-45.048-2.297-66.15l.022-.056a1.335 1.335 0 0 1 2.125-1.095c5.374 3.948 10.242 8.69 14.95 13.276 1.163 1.131 2.322 2.26 3.486 3.375 12.483 11.955 26.844 30.917 24.363 53.363-1.342 12.125-7.935 28.997-13.229 41.015a1.33 1.33 0 0 1-.813.733 1.338 1.338 0 0 1-1.325.456 1.335 1.335 0 0 1-1.01-1.595c1.298-5.798-.974-13.411-4.172-19.941a1.337 1.337 0 0 1-.5-.997 61.13 61.13 0 0 0-2.398-4.254c-3.387-5.474-12.555-16.161-18.001-17.068a1.332 1.332 0 0 1-.982-.733 1.336 1.336 0 0 1-.219-.33zm9.647-25.68c-1.246 0-2.414-.24-3.444-.723-1.616-.756-2.859-2.047-3.705-3.846a1.324 1.324 0 0 1-.265-.476c-.058-.185-.11-.368-.156-.548a1.346 1.346 0 0 1-.052-.216c-1.1-4.708 1.501-8.201 4.713-9.628 3.529-1.565 8.43-.9 10.978 3.403 1.147 1.94 1.353 4.324.563 6.542-.791 2.221-2.47 3.945-4.607 4.73-1.382.508-2.745.762-4.025.762zm-5.012-6.372c.584 1.579 1.492 2.666 2.7 3.23 1.438.674 3.362.629 5.416-.126 1.39-.511 2.488-1.648 3.013-3.12.523-1.468.397-3.03-.346-4.285-1.834-3.1-5.224-3.377-7.596-2.323-2.129.946-4.02 3.168-3.187 6.624zm25.903 14.814c1.25.615 1.64 2.358.684 3.406-.734.804-1.653 1.013-2.676.628-.477-.18-.872-.712-1.039-1.18a2.11 2.11 0 0 1-.12-.718v.006c-.226-1.684 1.713-2.848 3.15-2.142zm-10.442 5.286a2.705 2.705 0 0 1 1.834-.897c1.565-.119 2.862 1.313 2.567 2.862-.195 1.022-1.036 1.764-2.014 1.92a2.345 2.345 0 0 1-1.208.067c-.723-.153-1.47-.688-1.675-1.44-.244-.89-.13-1.798.496-2.512zm-4.56 3.972c3.149.601 2.215 5.493-.933 4.894zm17.443 13.215c.75-.218 1.528-.122 2.133.408.572.499.843 1.28.7 2.026a2.172 2.172 0 0 1-1.397 1.626c-.025.01-.058.012-.086.021.17-.153.349-.323.545-.537-.39.423-.883.61-1.374.633-.272-.018-.542-.079-.754-.215-.1-.063-.178-.048-.234.005a1.96 1.96 0 0 1-1.1-1.566c-.11-1.023.558-2.108 1.567-2.4zm.52 4.177c.289.019.578-.018.83-.096-1.726 1.548-2.098.159-1.817-.114.307.152.644.226.988.21zm-9.663 2.074c.149-.776.71-1.503 1.452-1.765.605-.216 1.16-.076 1.739.15.041.016.08.13.122.145 2.01.787 1.358 4.392-.801 4.392h-.132c-.818 0-1.554-.466-2.033-1.171-.331-.488-.458-1.17-.347-1.75zm-15.611-45.247c.243-1.277 1.514-2.141 2.791-1.898a2.411 2.411 0 0 1 1.898 2.794c-.244 1.276-1.514 2.14-2.793 1.895a2.408 2.408 0 0 1-1.896-2.791zm71.94-5.578c.052-.095.103-.193.155-.29.43-.806 1.584-.93 2.116-.147.533.785-.008 1.807-.916 1.912l-.327.039c-.786.091-1.4-.817-1.028-1.514zm1.744 4.105c.787.15.37 2.338-.418 2.188zm-2.001 13.637a.604.604 0 0 1 .089-.161 1.76 1.76 0 0 1 .552-.557 1.09 1.09 0 0 1 1.313.08c.396.346.422.825.26 1.287-.254.718-1.352 1.262-1.963.6-.354-.384-.42-.76-.251-1.25zm.352 3.55c.787.15.407 2.142-.38 1.992zm-6.308 10.342c.543-.504 1.388-.284 1.5.487-.024-.17.049.29.05.329.004.174-.007.346-.02.52-.019.272-.135.533-.332.722-.18.174-.44.318-.702.243-.993-.288-1.248-1.6-.496-2.301zm-.608 4.524c1.574.3 1.248 2.01-.326 1.709zm-2.56 4.967a.98.98 0 0 1 .29-.61c.382-.368.888-.374 1.256-.032-.092-.094-.155-.159.153.111.083.078.155.162.22.255.125.237.232.45.225.725-.013.67-.52 1.248-1.238 1.112-.47-.09-.742-.447-.811-.872-.017-.034-.028-.05-.047-.098l-.057-.261c-.015-.11-.012-.22.008-.33zm1.651-.529zm-4.136 9.178c.786.15.423 2.056-.364 1.906zm-2.314 4.542c.016-.035.023-.071.047-.103.455-.747 1.507-.559 1.648.315.134.842-.548 1.575-1.398 1.424-.844-.15-.906-1.255-.297-1.636zm-4.384 9.167c.01-.042.024-.086.036-.128a.927.927 0 0 1 1.82.347c-.005.044-.008.09-.014.133-.113 1.211-2.182.817-1.842-.352zm.649 5.16c.787.15.388 2.24-.399 2.089zm-.834 4.367c.787.15.454 1.897-.333 1.747zm-1.93 8.555l.234-.281c.374-.455 1.112-.389 1.435.084.322.473.112 1.187-.449 1.367-.116.036-.231.073-.348.112-.77.248-1.386-.658-.871-1.282zm1.105 4.319c.787.15.446 1.934-.34 1.783zm.917 3.735c.787.15.457 1.884-.33 1.734zm.794 8.828c.081-.092.164-.182.245-.271.359-.393 1.002-.37 1.307.08.305.447.087 1.053-.407 1.242l-.343.13c-.69.264-1.298-.638-.802-1.181zm2.569 3.465c.787.152.443 1.958-.345 1.81zm-17.073-76.566a1.334 1.334 0 0 1-1.318-1.556c1.032-6.14-.336-12.075-2.494-17.858a34.24 34.24 0 0 1-2.73-6.566c-.363-.815-.73-1.627-1.095-2.436-1.49-3.303-2.91-6.449-3.967-9.526-5.583-10.99-10.447-11.77-12.973-11.16-1.879.456-2.45 2.034-2.623 2.934-.312 1.613.205 3.363 1.2 4.072.766.545 1.787.456 3.035-.265a1.335 1.335 0 0 1 1.335 2.312c-2.93 1.692-4.966.807-5.919.128-1.85-1.318-2.785-4.095-2.273-6.752.494-2.564 2.22-4.442 4.615-5.023 3.71-.904 7.365.682 10.827 4.629-1.906-7.253-2.747-15.58 4.49-19.467 5.254-2.825 10.516-2.543 14.437.772 3.87 3.274 5.596 8.848 4.105 13.254-1.23 3.635-4.478 5.845-8.908 6.064-3.105.139-5.602-2.685-6.154-5.403-.465-2.284.312-5.192 3.886-6.503a1.334 1.334 0 1 1 .92 2.506c-2.226.817-2.42 2.335-2.19 3.465.369 1.814 1.97 3.357 3.405 3.269 3.375-.167 5.626-1.638 6.512-4.254 1.135-3.354-.284-7.807-3.3-10.359-3.083-2.607-7.148-2.771-11.45-.46-7.216 3.877-3.963 14.22-1.589 21.774.235.746.46 1.463.667 2.145.13.43.27.863.417 1.298a68.36 68.36 0 0 1 1.57 3.339c.13.297.144.616.061.905l.23.541c.052-.292.116-.582.191-.869.671-2.55 2.185-4.522 4.5-5.864 3.188-1.85 6.593-1.783 9.34.18 2.784 1.988 4.304 5.518 3.697 8.584-.503 2.544-2.42 4.384-5.26 5.047-1.924.45-3.431.165-4.482-.844-1.776-1.704-1.268-4.683-1.205-5.017a1.336 1.336 0 0 1 2.623.5c-.11.603-.15 2.038.433 2.594.446.424 1.346.325 2.023.168 1.826-.427 2.95-1.453 3.25-2.967.402-2.038-.704-4.515-2.63-5.892-1.886-1.348-4.177-1.362-6.45-.043-1.7.985-2.764 2.368-3.255 4.23-.62 2.348-.224 5.07.471 7.484.907 2.044 1.806 4.145 2.613 6.296.058.106.092.165.096.171.106.182.165.379.18.576 2.152 5.933 3.543 12.235 2.45 18.734a1.335 1.335 0 0 1-1.315 1.113zm-2.7 131.992c-9.348 0-18.871-4.99-26.602-9.04-19.861-10.41-27.113-26.098-35.51-44.264-1.362-2.947-2.77-5.994-4.258-9.065-13.675-28.236-28.909-46.902-47.942-58.745a1.335 1.335 0 0 1 .983-2.44c.182-.093.387-.146.606-.147 3.716-.014 7.315-.118 10.797-.218 18.089-.523 33.709-.975 50.792 11.523 16.175 11.83 21.504 27.408 27.146 43.9 1.456 4.256 2.961 8.657 4.677 13.06 6.033 15.474 14.116 24.852 24.034 27.888a1.335 1.335 0 0 1 2.54.79c-.4 1.798-.962 3.85-1.558 6.023-.205.75-.417 1.522-.63 2.31a1.334 1.334 0 0 1-.172.648c-.76 2.86-1.502 5.898-1.94 8.772a1.331 1.331 0 0 1-.15 1.07c-.263 2.089-.343 4.066-.123 5.795.013.098.014.194.006.288a1.335 1.335 0 0 1-1.168 1.806c-.509.031-1.019.046-1.529.046zm-21.798-54.466c-1.737-4.456-3.251-8.884-4.716-13.166-5.502-16.083-10.7-31.275-26.196-42.61C78.098 87.89 62.902 88.332 45.305 88.838c-2.441.07-4.941.143-7.504.185 17.838 12.181 32.336 30.588 45.386 57.533 1.497 3.093 2.91 6.151 4.278 9.108 8.193 17.725 15.268 33.032 34.326 43.02 7.454 3.905 16.626 8.71 25.316 8.734-.11-1.4-.071-2.89.074-4.431-.158.005-.318.008-.48.008-3.931 0-8.862-1.613-13.656-3.78a1.337 1.337 0 0 1-1.722-.805c-6.217-2.996-11.962-6.727-14.674-8.81-9.545-7.34-16.031-18.247-19.791-26.105-2.325-4.86-4.363-9.818-6.334-14.613-1.39-3.38-2.826-6.874-4.353-10.311-9.913-22.304-21.52-36.895-34.5-43.367a1.335 1.335 0 0 1-.03-2.374c.244-.2.557-.314.894-.304 10.23.367 21.438 2.946 29.98 6.9 9.335 4.324 15.31 11.326 20.374 18.248 7.913 10.816 11.727 21.557 15.415 31.943 2.373 6.683 4.827 13.594 8.343 20.33 2.696 5.166 10.935 15.741 23.283 19.995l.354-1.293c.335-1.22.659-2.403.947-3.514-10.8-3.242-19.504-13.168-25.875-29.512zm14.735 32.406c-2.662 2.514-4.213 5.522-5.635 8.889 4.906 2.178 9.721 3.655 13.073 3.377.409-2.55 1.034-5.187 1.709-7.77-3.338-1.132-6.395-2.698-9.147-4.496zm-11.542-10.514c-2.94 1.416-6.282 5.08-9.508 10.451a1.35 1.35 0 0 1-.04.062c3.256 2.401 8.075 5.353 13.033 7.762 1.463-3.454 3.073-6.577 5.825-9.316-3.809-2.821-6.939-6.025-9.31-8.96zm-4.269-6.332c-1.562-2.994-2.915-6.006-4.141-9.01-3.858 1.72-7.012 5.172-10.07 8.518-1.21 1.325-2.456 2.688-3.725 3.914 2.905 4.177 6.41 8.318 10.542 11.764 2.416-3.983 5.977-8.827 10.016-11.01-1.132-1.573-2.01-3.005-2.622-4.176zm-8.493-20.673c-.448-1.264-.899-2.533-1.359-3.806-4.145 1.938-7.39 5.646-10.536 9.24-1.624 1.856-3.298 3.768-5.086 5.426.152.325.305.649.46.972 1.44 3.01 3.29 6.478 5.567 10.007 1.08-1.067 2.148-2.237 3.265-3.459 3.273-3.581 6.648-7.277 11.052-9.199-1.198-3.087-2.289-6.157-3.363-9.18zm-9.343-22.256c-1.08 1.05-2.213 2.09-3.394 3.173-4.303 3.949-8.752 8.032-10.82 12.977-.095.23-.248.418-.434.556.404.976.802 1.946 1.197 2.907 1.478 3.596 2.995 7.284 4.636 10.939 1.44-1.405 2.815-2.976 4.254-4.62 3.384-3.867 6.876-7.856 11.625-9.998-1.952-5.26-4.14-10.59-7.064-15.934zm-5.71-9.004c-1.298-1.774-2.657-3.554-4.12-5.286-4.307 5.685-8.21 12.302-10.585 17.965.874 1.798 1.734 3.65 2.582 5.557a257.098 257.098 0 0 1 1.878 4.345c2.464-4.762 6.673-8.624 10.756-12.37 1.35-1.24 2.637-2.42 3.834-3.609a80.22 80.22 0 0 0-4.345-6.602zm-18.859-17.173c-.308.6-.62 1.203-.933 1.808-1.563 3.017-3.179 6.138-4.464 9.247a1.332 1.332 0 0 1-.88.778c3.085 4.407 6.048 9.381 8.884 14.916 2.55-5.506 6.283-11.629 10.333-16.906-3.525-3.83-7.67-7.313-12.94-9.843zm-24.25-6.506c5.81 3.842 11.318 9.281 16.494 16.283 1.309-3.127 2.906-6.212 4.452-9.197.289-.558.577-1.113.862-1.668-6.396-2.662-14.269-4.607-21.808-5.418zm77.61 125.48c-3.219 0-6.398-.45-9.622-1.343-10.49-2.91-14.08-4.746-16.438-15.38l-.687-3.097 2.694 1.673c.902.56 1.858 1.166 2.86 1.802 9.34 5.92 23.456 14.865 33.653 11.125.626-.23 1.315.04 1.628.606a1.336 1.336 0 0 1-.572 2.126c-4.714 1.662-9.15 2.489-13.516 2.489zm-22.61-14.083c2.095 6.643 5.33 7.844 13.701 10.167 3.03.84 5.97 1.264 8.943 1.264l.176-.001c-8.194-2.16-16.536-7.447-22.82-11.43zm-29.851-36.585a43.948 43.948 0 0 0-5.702-5.894c-.81 3.835-1.952 7.586-3.06 11.223-1.536 5.046-3.124 10.264-3.79 15.642a1.332 1.332 0 0 1-.48.871c4.195.278 7.995.889 10.05 1.373 1.273.3 2.591.655 3.93 1.064.466-2.397 1.42-5.32 2.416-8.376.862-2.64 1.752-5.37 2.237-7.566a1.3 1.3 0 0 1 .005-.022c-1.827-3.109-3.708-5.944-5.606-8.315zm-52.82-19.505c-1.618.035-3.244.057-4.873.079-5.85.076-11.878.155-17.71.89 8.022 16.259 22.228 30.696 37.835 38.848.218-2.654.702-5.437 1.172-8.14.431-2.479.877-5.042 1.113-7.478.634-6.49 1.878-14.771 5.88-21.99-8.109-1.889-16.308-2.361-23.416-2.209zm23.42 43.449c3.344-2.003 9.127-2.422 14.574-2.198a1.332 1.332 0 0 1-.375-1.102c.693-5.608 2.316-10.938 3.886-16.093 1.193-3.92 2.427-7.973 3.214-12.056.017-.088.042-.173.075-.253-5.655-4.242-12.1-7.051-18.691-8.857-4.044 6.924-5.282 15.15-5.908 21.568-.247 2.536-.7 5.149-1.14 7.676-.548 3.154-1.066 6.133-1.214 8.963v.008a67.313 67.313 0 0 0 5.58 2.344zm46.569 8.5c-2.75-6.729-6.075-14.178-9.673-20.785-.472 1.634-1.038 3.372-1.593 5.073-.98 3.004-1.989 6.094-2.396 8.39 4.93 1.741 9.904 4.198 13.662 7.322zm-47.16-5.874c-19.827-7.158-38.825-24.882-48.4-45.152a1.365 1.365 0 0 1-.024-.054 1.335 1.335 0 0 1 .727-2.277c6.593-1.008 13.388-1.097 19.96-1.184a560.41 560.41 0 0 0 4.85-.077c17.281-.38 40.844 2.877 54.962 20.505 7.625 9.524 14.893 26.115 19.649 38.356.144.37.111.766-.058 1.094a1.334 1.334 0 0 1-2.456.846c-3.184-5.021-10.176-8.798-17.055-11.152a1.337 1.337 0 0 1-1.053-.35 61.1 61.1 0 0 0-4.705-1.311c-6.266-1.477-20.303-2.554-24.797.658-.365.26-.816.31-1.21.176a1.333 1.333 0 0 1-.39-.078zm-16.744-22.624c-.933 0-1.894-.177-2.876-.53a1.349 1.349 0 0 1-.529-.15 11.349 11.349 0 0 1-.512-.287 1.278 1.278 0 0 1-.16-.097c-4.12-2.551-4.753-6.867-3.488-10.152 1.387-3.602 5.324-6.596 10.167-5.353 2.184.56 4.016 2.101 5.025 4.229 1.01 2.13 1.042 4.535.086 6.6-1.22 2.637-3.087 4.522-5.255 5.308a7.18 7.18 0 0 1-2.458.432zm-2.652-3.321c1.532.706 2.944.834 4.2.379 1.494-.542 2.822-1.933 3.741-3.92.623-1.343.595-2.923-.074-4.333-.669-1.41-1.863-2.426-3.276-2.788-3.486-.897-6.08 1.305-7.013 3.726-.837 2.173-.604 5.078 2.422 6.936zm28.799-7.837c1.32-.449 2.827.505 2.892 1.925.05 1.086-.452 1.884-1.448 2.334-.464.212-1.12.114-1.57-.1a2.089 2.089 0 0 1-.587-.416c-1.35-1.032-.803-3.227.713-3.743zm-3.645 11.12a2.708 2.708 0 0 1 .662-1.931c1.022-1.19 2.953-1.095 3.839.209.584.862.515 1.98-.067 2.783a2.36 2.36 0 0 1-.805.9c-.622.404-1.527.552-2.203.168-.804-.458-1.363-1.181-1.426-2.129zm-.415 6.032c2.65-1.8 5.45 2.32 2.799 4.122zm21.677-2.987c.377-.687.995-1.169 1.797-1.222a2.17 2.17 0 0 1 1.927.937 2.17 2.17 0 0 1 .163 2.138c-.012.025-.033.052-.045.077a7.48 7.48 0 0 0 .004-.767 1.955 1.955 0 0 1-.524 1.423c-.205.18-.44.325-.685.38-.116.025-.16.09-.161.168-.604.203-1.3.14-1.885-.33-.803-.643-1.097-1.885-.59-2.804zm3.322 2.586c.218-.192.396-.425.52-.656-.127 2.315-1.373 1.596-1.366 1.204.323-.11.613-.295.846-.548zm-5.452 8.213a2.259 2.259 0 0 1-.17-2.225c.275-.579.73-.908 1.3-1.157.041-.018.08-.036.12-.052 1.978-.867 3.937 2.016 2.401 3.535l-.092.092c-.581.575-1.29.907-2.127.747a2.25 2.25 0 0 1-1.432-.94zm-42.948-20.87a2.412 2.412 0 0 1 .632-3.317c1.077-.73 2.587-.442 3.318.634a2.41 2.41 0 0 1-.634 3.315 2.409 2.409 0 0 1-3.316-.631zm46.926-54.814l-.096-.317c-.266-.874.462-1.774 1.392-1.598.932.18 1.272 1.284.705 1.999-.068.088-.137.173-.205.259-.49.62-1.567.411-1.796-.343zm4.134 1.669c.664-.45 1.916 1.393 1.252 1.843zm8.58 11.906a.625.625 0 0 1-.05-.174 1.766 1.766 0 0 1-.003-.786c.095-.472.5-.838.985-.871.525-.036.881.284 1.094.726.327.687-.065 1.848-.963 1.812-.524-.02-.837-.24-1.063-.707zm2.408 1.413c.662-.45 1.802 1.228 1.14 1.679zm2.852 11.773c.028-.74.782-1.182 1.407-.716-.14-.105.239.17.267.198.126.12.241.249.356.382.176.206.278.472.273.744-.004.25-.086.537-.324.669-.906.497-2.015-.249-1.979-1.276zm2.77 3.63c1.324-.901 2.303.539.978 1.44zm1.701 5.323a.978.978 0 0 1-.224-.636c.009-.53.359-.891.857-.912-.127-.002-.207-.004.194-.03.113-.004.224.006.335.026.256.078.482.154.673.354.463.481.515 1.25-.09 1.66-.396.27-.841.207-1.19-.042-.036-.012-.055-.017-.102-.037-.076-.047-.15-.096-.227-.144a1.08 1.08 0 0 1-.226-.24zm4.359 7.872c.663-.45 1.753 1.155 1.09 1.606zm1.927 5.697c-.013-.035-.034-.067-.037-.104-.208-.85.669-1.462 1.386-.943.69.5.726 1.5.018 1.994-.703.49-1.528-.247-1.367-.947zm3.03 8.734a3.701 3.701 0 0 0-.066-.118.927.927 0 0 1 1.534-1.04c.028.034.057.068.084.104.777.936-.965 2.12-1.552 1.054zm4.107 3.188c.663-.45 1.86 1.31 1.196 1.759zm2.5 3.679c.663-.45 1.662 1.02.999 1.47zm4.685 7.413c-.011-.123-.024-.245-.036-.366-.056-.583.514-1.06 1.075-.952.562.107.918.76.65 1.282-.057.109-.111.216-.167.326-.37.72-1.445.514-1.522-.29zm3.834 2.274c.663-.45 1.682 1.05 1.02 1.5zm3.29 1.99c.662-.449 1.654 1.012.993 1.462zm6.803 5.682l-.018-.365c-.024-.531.448-.97.98-.868.533.102.808.684.591 1.167l-.148.334c-.303.675-1.371.468-1.405-.268zm4.268.634c.664-.45 1.696 1.072 1.034 1.523zm-67.157-41.674c-.417 0-.829-.196-1.09-.561-3.609-5.07-8.77-8.3-14.382-10.862a34.227 34.227 0 0 1-6.586-2.717c-.83-.32-1.663-.634-2.492-.947-3.39-1.282-6.618-2.503-9.542-3.932-11.717-3.823-15.71-.935-17.064 1.283-1.005 1.65-.293 3.17.22 3.93.921 1.36 2.522 2.235 3.73 2.03.926-.156 1.585-.94 1.958-2.333a1.335 1.335 0 0 1 2.579.691c-.875 3.268-2.941 4.081-4.095 4.275a4.749 4.749 0 0 1-.787.064c-2.044.001-4.253-1.247-5.596-3.23-1.463-2.163-1.572-4.711-.288-6.816 1.987-3.261 5.692-4.725 10.929-4.383-6.477-3.78-12.958-9.073-10.591-16.94 1.72-5.713 5.64-9.234 10.755-9.661 5.051-.43 10.213 2.298 12.275 6.469 1.7 3.44.967 7.3-2.012 10.587-2.076 2.295-5.858 2.062-8.171.531-1.944-1.287-3.451-3.892-1.85-7.347a1.335 1.335 0 0 1 2.422 1.122c-.997 2.152-.06 3.362.902 3.999 1.542 1.02 3.747.976 4.718-.097 2.268-2.504 2.82-5.136 1.597-7.613-1.569-3.173-5.72-5.313-9.659-4.99-4.023.336-7.013 3.095-8.42 7.77-2.361 7.845 7.253 12.859 14.274 16.52.692.362 1.36.71 1.987 1.045.396.212.8.42 1.213.623 1.118.367 2.275.784 3.471 1.25.302.118.537.334.683.597l.544.221c-.17-.244-.33-.494-.479-.75-1.328-2.277-1.653-4.743-.966-7.328.947-3.561 3.401-5.923 6.733-6.477 3.378-.559 6.946.859 8.684 3.456 1.443 2.154 1.388 4.81-.15 7.287-1.043 1.678-2.31 2.543-3.767 2.573-2.504.04-4.208-2.415-4.398-2.696a1.335 1.335 0 1 1 2.208-1.5c.345.498 1.316 1.527 2.117 1.527h.022c.616-.015 1.183-.722 1.55-1.313.989-1.592 1.058-3.111.2-4.393-1.156-1.727-3.691-2.698-6.027-2.308-2.285.381-3.916 1.99-4.591 4.53-.505 1.898-.28 3.63.689 5.293 1.222 2.099 3.428 3.744 5.625 4.959 2.088.804 4.212 1.655 6.306 2.607.112.032.176.049.183.05.203.054.383.151.532.28 5.719 2.672 11.16 6.145 14.983 11.515a1.335 1.335 0 0 1-1.086 2.11zm48.628 110.184c-13.108 0-24.874-4.328-37.868-9.106-3.048-1.121-6.2-2.28-9.425-3.4-29.633-10.298-53.604-12.725-75.438-7.639a1.335 1.335 0 0 1-1.031-2.42c.062-.194.17-.378.324-.532 2.618-2.638 5.09-5.257 7.48-7.79 12.42-13.16 23.145-24.526 44.063-27.769 19.803-3.071 34.587 4.175 50.238 11.848 4.039 1.98 8.215 4.027 12.541 5.928 15.21 6.677 27.558 7.593 36.717 2.724a1.336 1.336 0 0 1 2.356-1.237c.985 1.55 2.036 3.396 3.149 5.35.386.678.783 1.376 1.192 2.086a1.332 1.332 0 0 1 .339.586c1.484 2.56 3.107 5.23 4.83 7.572a1.33 1.33 0 0 1 .65.861c1.291 1.665 2.634 3.119 4.012 4.186.078.06.147.127.208.2a1.335 1.335 0 0 1 .45 2.103c-6.534 7.372-17.467 10.787-26.25 13.53-6.595 2.06-12.7 2.918-18.537 2.92zM114.18 225.4c-4.377-1.922-8.579-3.982-12.642-5.973-15.263-7.483-29.678-14.55-48.654-11.607-20.013 3.103-30.448 14.16-42.53 26.963-1.677 1.776-3.393 3.594-5.175 5.436 21.23-4 44.496-1.236 72.774 8.59 3.247 1.128 6.411 2.292 9.47 3.416 18.324 6.738 34.15 12.558 54.687 6.145 8.03-2.509 17.924-5.6 24.078-11.725-1.069-.913-2.094-1.993-3.082-3.186-2.733 2.932-7.538 5.396-12.662 7.33a1.33 1.33 0 0 1-1.786.648c-6.516 2.278-13.217 3.702-16.608 4.145-2.2.288-4.415.416-6.612.416-9.723 0-19.14-2.515-25.84-4.878-5.074-1.792-10.017-3.854-14.797-5.85-3.377-1.408-6.87-2.866-10.384-4.217-22.781-8.763-41.307-10.875-55.06-6.27a1.334 1.334 0 0 1-1.702-1.655c.03-.313.17-.618.419-.85 7.49-6.973 17.238-13.075 26.079-16.32 9.662-3.547 18.835-2.82 27.31-1.504 13.243 2.053 23.534 6.95 33.486 11.687 6.403 3.047 13.025 6.199 20.272 8.475 5.56 1.746 18.865 3.4 30.605-2.325l-.67-1.176a269.312 269.312 0 0 0-1.808-3.142c-9.93 5.345-23.103 4.482-39.167-2.573zm33.336 12.496c-.106 3.66.926 6.884 2.302 10.271 5.008-1.928 9.456-4.289 11.63-6.857-1.513-2.092-2.936-4.399-4.284-6.702-3.16 1.56-6.43 2.613-9.648 3.288zm-10.078 1.017c-1.957 0-3.813-.11-5.518-.29-1.077 3.08-.85 8.034.666 14.113l.015.072c4-.603 9.496-1.923 14.707-3.725-1.41-3.477-2.48-6.825-2.47-10.708-2.557.38-5.052.538-7.4.538zm-13.017-1.75c-3.22-1.012-6.305-2.185-9.295-3.44-1.514 3.944-1.303 8.616-1.099 13.145.081 1.792.165 3.636.134 5.4 5.007.9 10.413 1.349 15.772.863-1.108-4.524-2.015-10.468-.702-14.868-1.913-.312-3.549-.704-4.81-1.1zm-20.62-8.611c-1.21-.577-2.427-1.156-3.653-1.731-1.56 4.301-1.233 9.217-.917 13.982.164 2.461.333 4.998.24 7.436.338.122.676.243 1.015.363 3.146 1.11 6.907 2.254 11.012 3.14.008-1.52-.063-3.1-.138-4.753-.219-4.848-.445-9.848 1.311-14.324-3.03-1.334-5.972-2.734-8.87-4.113zm-22.345-9.13c-.021 1.502-.087 3.037-.156 4.636-.25 5.837-.51 11.873 1.525 16.834.094.23.12.47.086.7.981.406 1.954.813 2.918 1.215 3.583 1.495 7.258 3.029 10.997 4.45.025-2.012-.114-4.097-.258-6.277-.341-5.126-.693-10.416 1.15-15.288-5.1-2.339-10.414-4.56-16.262-6.27zm-10.403-2.33c-2.173-.337-4.392-.634-6.651-.825.973 7.067 2.893 14.506 5.218 20.188 1.889.654 3.807 1.356 5.755 2.105 1.475.567 2.943 1.152 4.399 1.743-1.625-5.112-1.38-10.82-1.141-16.359.078-1.828.153-3.57.16-5.256a80.217 80.217 0 0 0-7.74-1.596zm-25.479 1.192c.206.64.41 1.284.615 1.93 1.03 3.241 2.095 6.593 3.385 9.703.165.397.125.827-.072 1.173 5.298.934 10.911 2.356 16.83 4.265-2.09-5.694-3.78-12.665-4.648-19.262-5.2-.216-10.594.253-16.11 2.19zM23.826 230.83c6.826-1.392 14.566-1.44 23.176-.15-1.286-3.139-2.339-6.452-3.357-9.659-.19-.596-.378-1.19-.568-1.78-6.406 2.64-13.348 6.832-19.25 11.59zm123.63 44.315c-3.007 0-6.085-1.194-10.277-3.863l-2.675-1.705 3.088-.722c1.035-.241 2.14-.49 3.301-.75 10.79-2.418 27.093-6.073 31.657-15.928a1.339 1.339 0 0 1 1.587-.72 1.334 1.334 0 0 1 1.093 1.907c-3.75 7.833-8.692 13.29-15.553 17.17-5.151 2.915-8.636 4.611-12.221 4.611zm-5.97-4.436c6.18 3.215 9.316 1.778 16.877-2.5 2.79-1.578 5.21-3.397 7.343-5.555-7.323 4.265-16.961 6.427-24.22 8.055zM25.863 308.22a1.335 1.335 0 0 1-1.075-2.125c3.948-5.374 8.688-10.241 13.272-14.948a557.413 557.413 0 0 0 3.379-3.489c11.956-12.484 30.915-26.834 53.365-24.363 12.126 1.342 28.996 7.934 41.013 13.227.364.16.621.464.734.816a1.335 1.335 0 0 1-1.14 2.334c-5.8-1.298-13.411.972-19.938 4.169a1.343 1.343 0 0 1-1.003.502 61.073 61.073 0 0 0-4.25 2.398c-5.475 3.386-16.162 12.553-17.07 18.002a1.332 1.332 0 0 1-.728.98 1.333 1.333 0 0 1-.332.22c-10.465 4.912-22.999 7.401-35.665 7.401-10.433 0-20.956-1.688-30.486-5.104a1.345 1.345 0 0 1-.053-.02h-.023zm68.647-42.27a43.905 43.905 0 0 0-8.201-.14c2.14 3.285 3.984 6.745 5.773 10.1 2.482 4.654 5.048 9.467 8.38 13.741.22.282.31.625.276.955 3.164-2.77 6.281-5.025 8.077-6.135a62.156 62.156 0 0 1 3.531-2.027c-1.365-2.025-2.757-4.765-4.214-7.631-1.257-2.475-2.557-5.034-3.768-6.93a1.407 1.407 0 0 1-.012-.02c-3.489-.905-6.823-1.58-9.842-1.914zm-51.143 23.554a569.413 569.413 0 0 1-3.394 3.506c-4.08 4.19-8.286 8.508-11.889 13.15 17.168 5.823 37.421 5.987 54.224.715-1.722-2.03-3.348-4.34-4.927-6.583-1.448-2.057-2.946-4.185-4.501-6.076-4.143-5.037-9.12-11.775-11.391-19.71-7.073 4.399-13.205 9.864-18.122 14.998zM90.65 303.67c.948-3.782 4.74-8.167 8.75-11.862a1.333 1.333 0 0 1-1.043-.513c-3.475-4.457-6.096-9.373-8.63-14.127-1.929-3.616-3.922-7.355-6.252-10.797a1.343 1.343 0 0 1-.127-.235c-6.999.998-13.542 3.568-19.48 6.952 2.035 7.758 6.977 14.452 11.074 19.433 1.619 1.969 3.146 4.137 4.622 6.236 1.843 2.616 3.583 5.089 5.48 7.193l.006.007a67.365 67.365 0 0 0 5.6-2.287zm38.94-26.92c-6.702-2.813-14.32-5.73-21.536-7.857.821 1.489 1.649 3.117 2.459 4.711 1.43 2.817 2.903 5.716 4.239 7.628 4.717-2.255 9.971-4.034 14.838-4.482zm-71.142 27.426c-3.615 0-6.276-2.269-7.476-4.97-1.565-3.527-.9-8.43 3.404-10.977 1.94-1.148 4.326-1.352 6.544-.562 2.22.792 3.943 2.47 4.727 4.606 1.002 2.728 1.016 5.382.038 7.47-.757 1.616-2.047 2.858-3.845 3.704a1.332 1.332 0 0 1-.477.265c-.185.057-.37.11-.552.157a1.34 1.34 0 0 1-.207.05 9.46 9.46 0 0 1-2.156.257zm-.24-14.313c-.876 0-1.728.224-2.473.664-3.098 1.833-3.376 5.222-2.322 7.595.945 2.129 3.168 4.02 6.622 3.188 1.58-.584 2.666-1.49 3.232-2.698.673-1.44.629-3.364-.126-5.418-.51-1.39-1.647-2.487-3.118-3.012a5.408 5.408 0 0 0-1.814-.319zm16.645-14.456c.613-1.25 2.354-1.64 3.405-.684.804.734 1.012 1.652.627 2.675-.18.478-.712.872-1.18 1.038a2.091 2.091 0 0 1-.712.122c-1.684.226-2.848-1.713-2.14-3.151zm5.285 10.44a2.706 2.706 0 0 1-.898-1.832c-.12-1.565 1.314-2.862 2.862-2.568 1.022.197 1.765 1.037 1.92 2.015.123.389.154.802.069 1.208-.155.724-.69 1.467-1.441 1.674-.89.246-1.798.129-2.512-.496zm3.97 4.56c.602-3.147 5.493-2.213 4.895.935zm13.217-17.441c-.22-.753-.122-1.529.406-2.134a2.17 2.17 0 0 1 2.026-.7 2.168 2.168 0 0 1 1.627 1.397c.01.025.012.058.022.086a7.612 7.612 0 0 0-.54-.546c.426.392.612.883.635 1.376-.018.272-.08.541-.214.754-.064.1-.05.177.005.233a1.957 1.957 0 0 1-1.567 1.099c-1.021.112-2.107-.558-2.4-1.565zm4.176-.521a2.356 2.356 0 0 0-.095-.83c1.547 1.726.158 2.099-.114 1.817.151-.308.225-.643.21-.987zm1.834 9.664c-.778-.15-1.358-.71-1.621-1.454-.215-.602-.174-1.159.053-1.738.016-.04-.065-.08-.048-.12.785-2.012 4.005-1.358 4.005.8v.13c0 .82-.08 1.555-.783 2.034-.49.332-1.025.459-1.606.348zm-45.006 15.61c-1.278-.243-2.142-1.514-1.898-2.79a2.41 2.41 0 0 1 2.793-1.899 2.41 2.41 0 0 1 1.895 2.793 2.408 2.408 0 0 1-2.79 1.897zm-5.578-71.939l-.291-.156c-.806-.43-.93-1.584-.147-2.116.785-.533 1.807.01 1.912.916l.039.328c.091.786-.818 1.399-1.513 1.028zm3.953-.958c.151-.786 2.34-.369 2.188.418zm14.988 2.416a.61.61 0 0 1-.158-.088 1.767 1.767 0 0 1-.558-.553 1.088 1.088 0 0 1 .08-1.313c.346-.396.824-.422 1.287-.259.717.255 1.26 1.353.6 1.962-.384.356-.76.42-1.251.25zm2.2-.766c.15-.787 2.143-.407 1.992.38zm10.493 5.52c-.506-.544-.283-1.393.493-1.5-.19.026.284-.048.323-.05.173-.003.346.006.52.018.27.022.532.137.721.335.173.18.318.439.244.701-.29.993-1.602 1.247-2.301.496zm4.373 1.395c.3-1.573 2.01-1.248 1.709.327zm5.118 1.775a.987.987 0 0 1-.61-.292c-.365-.378-.375-.879-.043-1.246-.088.086-.138.133.121-.164.078-.082.163-.154.257-.217.235-.126.448-.233.724-.226.669.013 1.25.52 1.111 1.238-.09.47-.448.74-.871.812l-.098.046c-.087.02-.174.037-.263.059-.109.012-.218.01-.328-.01zm8.498 3.27c.15-.786 2.056-.422 1.906.365zm5.893 2.73c-.034-.016-.071-.024-.1-.047-.749-.456-.56-1.508.314-1.648.84-.135 1.575.547 1.423 1.398-.15.842-1.255.906-1.637.296zm7.967 3.184a2.412 2.412 0 0 0-.13-.038.927.927 0 0 1 .349-1.82c.043.005.09.008.132.014 1.213.113.817 2.182-.351 1.844zm5.008.135c.15-.786 2.24-.387 2.09.4zm4.37.834c.15-.786 1.895-.454 1.745.333zm8.703 1.143c-.095-.08-.19-.156-.282-.233-.455-.374-.388-1.113.085-1.435.472-.322 1.186-.112 1.366.448l.113.348c.248.77-.658 1.386-1.282.872zm4.17-.317c.149-.787 1.93-.446 1.78.34zm3.733-.919c.15-.786 1.886-.455 1.736.331zm8.979-1.58l-.271-.244c-.393-.359-.37-1.002.078-1.308.45-.304 1.056-.088 1.244.408l.13.34c.264.692-.638 1.302-1.181.804zm3.315-1.783c.151-.786 1.958-.44 1.808.346zM22.355 273.854c-4.414 0-8.426-1.412-10.793-5.817-2.824-5.256-2.543-10.518.773-14.438 3.274-3.87 8.847-5.595 13.254-4.105 3.635 1.23 5.845 4.477 6.063 8.908.154 3.091-2.684 5.601-5.403 6.154-2.287.464-5.192-.312-6.503-3.887a1.335 1.335 0 0 1 2.507-.92c.816 2.226 2.332 2.42 3.464 2.19 1.814-.369 3.34-1.96 3.269-3.405-.167-3.374-1.638-5.625-4.254-6.51-3.354-1.135-7.807.283-10.359 3.299-2.607 3.083-2.77 7.15-.46 11.45 3.878 7.215 14.22 3.963 21.773 1.589.746-.235 1.464-.46 2.146-.667.432-.131.867-.271 1.304-.42 1.05-.53 2.16-1.052 3.333-1.567.298-.131.616-.145.905-.062.18-.075.36-.152.54-.229a11.15 11.15 0 0 1-.868-.191c-2.55-.672-4.523-2.185-5.864-4.499-1.85-3.189-1.783-6.594.18-9.342 1.99-2.783 5.52-4.307 8.584-3.696 2.544.504 4.383 2.421 5.046 5.26.45 1.923.166 3.43-.842 4.481-1.706 1.777-4.683 1.269-5.018 1.205a1.335 1.335 0 0 1 .5-2.623c.603.11 2.038.15 2.594-.433.425-.446.325-1.346.167-2.022-.427-1.826-1.452-2.95-2.966-3.25-2.037-.4-4.515.703-5.892 2.63-1.347 1.886-1.362 4.176-.043 6.45.985 1.7 2.368 2.764 4.23 3.255 2.35.62 5.074.222 7.489-.473 2.04-.906 4.138-1.803 6.286-2.609.11-.06.17-.095.176-.1.182-.105.38-.163.577-.178 5.933-2.152 12.235-3.543 18.733-2.452a1.335 1.335 0 0 1-.442 2.634c-6.139-1.033-12.072.333-17.853 2.49-.9.496-3.454 1.822-6.575 2.735-.814.363-1.626.729-2.435 1.094-3.284 1.482-6.413 2.894-9.474 3.95-5.805 2.962-12.508 7.637-11.21 12.99.456 1.879 2.034 2.45 2.933 2.623 1.616.31 3.364-.206 4.074-1.2.545-.767.456-1.787-.265-3.035a1.335 1.335 0 1 1 2.312-1.335c1.692 2.93.806 4.965.128 5.918-1.077 1.512-3.127 2.413-5.291 2.414-.485 0-.976-.047-1.462-.14-2.565-.494-4.443-2.22-5.024-4.616-.9-3.711.686-7.366 4.632-10.827-2.838.746-5.84 1.329-8.676 1.329zM87.84 375.788a1.335 1.335 0 0 1-1.305-1.612 1.328 1.328 0 0 1-.148-.606c-.014-3.716-.118-7.316-.219-10.798-.523-18.088-.974-33.708 11.522-50.793 11.832-16.175 27.41-21.504 43.902-27.146 4.256-1.455 8.656-2.96 13.06-4.677 15.476-6.033 24.855-14.118 27.89-24.035a1.334 1.334 0 0 1 .79-2.54c1.794.399 3.845.962 6.017 1.558.75.205 1.522.417 2.311.63a1.36 1.36 0 0 1 .657.175c2.858.76 5.893 1.501 8.765 1.939a1.32 1.32 0 0 1 1.076.15c2.088.264 4.064.343 5.791.122.097-.012.193-.013.287-.005.123-.046.256-.076.394-.084.726-.057 1.368.515 1.413 1.252.592 9.834-4.724 19.978-8.996 28.13-10.408 19.861-26.096 27.112-44.262 35.509-2.947 1.363-5.994 2.77-9.065 4.258-28.235 13.674-46.902 28.908-58.745 47.943-.253.407-.689.63-1.135.63zm67.781-93.144c-4.456 1.737-8.883 3.25-13.164 4.716-16.084 5.502-31.276 10.698-42.612 26.196-11.956 16.346-11.516 31.542-11.008 49.139.071 2.442.143 4.942.185 7.504 12.182-17.84 30.59-32.338 57.534-45.386 3.093-1.498 6.15-2.912 9.109-4.279 17.723-8.192 33.03-15.268 43.018-34.326 3.904-7.451 8.715-16.633 8.735-25.316-.55.043-1.113.064-1.687.064-.89 0-1.808-.05-2.745-.138.14 4.004-1.516 9.144-3.772 14.134a1.331 1.331 0 0 1-.805 1.722c-2.996 6.218-6.726 11.964-8.81 14.676-7.34 9.547-18.247 16.032-26.105 19.791-4.853 2.322-9.805 4.358-14.596 6.327-3.385 1.39-6.885 2.83-10.328 4.361-22.305 9.913-36.896 21.52-43.366 34.5a1.335 1.335 0 0 1-2.373.034 1.33 1.33 0 0 1-.305-.899c.365-10.225 2.945-21.433 6.9-29.98 4.324-9.336 11.326-15.31 18.248-20.375 10.815-7.911 21.554-11.725 31.94-15.413 6.684-2.373 13.595-4.827 20.33-8.344 5.167-2.694 15.743-10.933 19.996-23.284-.436-.118-.869-.237-1.298-.355a265.907 265.907 0 0 0-3.507-.945c-3.242 10.8-13.167 19.503-29.514 25.876zm32.407-14.736c2.518 2.666 5.525 4.215 8.89 5.635 2.178-4.906 3.655-9.72 3.377-13.072-2.551-.409-5.188-1.034-7.77-1.71-1.133 3.338-2.699 6.395-4.497 9.147zm-10.514 11.543c1.416 2.94 5.08 6.281 10.45 9.506l.064.04c2.401-3.256 5.353-8.074 7.762-13.032-3.452-1.46-6.575-3.07-9.316-5.825-2.822 3.81-6.025 6.94-8.96 9.311zm-6.335 4.27c-2.992 1.561-6.003 2.914-9.006 4.14 1.719 3.859 5.171 7.013 8.518 10.071 1.325 1.21 2.688 2.455 3.914 3.724 4.177-2.905 8.318-6.41 11.764-10.543-3.983-2.415-8.827-5.975-11.01-10.016-1.575 1.133-3.008 2.012-4.18 2.623zm-20.671 8.491c-1.264.449-2.532.9-3.805 1.359 1.938 4.145 5.645 7.39 9.24 10.536 1.854 1.624 3.766 3.298 5.424 5.087.326-.153.65-.307.975-.462 3.009-1.44 6.478-3.289 10.006-5.565-1.067-1.08-2.236-2.148-3.458-3.264-3.582-3.272-7.277-6.649-9.2-11.054-3.087 1.2-6.158 2.29-9.182 3.363zm-22.255 9.344a162.223 162.223 0 0 1 3.168 3.388c3.95 4.305 8.035 8.757 12.982 10.824.23.096.419.248.557.435.982-.406 1.957-.807 2.923-1.205 3.59-1.475 7.273-2.989 10.92-4.627-1.404-1.44-2.976-2.816-4.62-4.255-3.865-3.385-7.854-6.876-9.996-11.625-5.26 1.952-10.589 4.14-15.934 7.065zm-9.002 5.71c-1.775 1.297-3.554 2.656-5.287 4.119 5.686 4.307 12.304 8.21 17.964 10.585 1.798-.873 3.65-1.734 5.558-2.581a255.532 255.532 0 0 1 4.345-1.88c-4.765-2.464-8.629-6.675-12.377-10.76-1.237-1.348-2.416-2.632-3.602-3.828a80.194 80.194 0 0 0-6.601 4.344zm-17.175 18.858c.599.307 1.2.619 1.803.93 3.02 1.564 6.141 3.181 9.252 4.467.397.164.672.497.778.88 4.407-3.085 9.381-6.048 14.916-8.883-5.504-2.55-11.626-6.284-16.904-10.334-3.831 3.524-7.314 7.67-9.845 12.94zm-6.505 24.251c3.84-5.81 9.28-11.318 16.281-16.494-3.128-1.31-6.214-2.908-9.2-4.455-.557-.288-1.111-.575-1.664-.859-2.662 6.398-4.607 14.271-5.417 21.809zm105.658-50.863l1.673-2.694a376.11 376.11 0 0 1 1.8-2.86c5.921-9.34 14.869-23.456 11.127-33.653-.23-.627.04-1.315.607-1.628a1.337 1.337 0 0 1 2.125.572c2.889 8.192 3.252 15.544 1.145 23.139-2.91 10.49-4.745 14.079-15.38 16.438zm17.168-26.954c-2.163 8.192-7.448 16.533-11.43 22.816 6.643-2.095 7.844-5.328 10.166-13.7.857-3.089 1.28-6.084 1.264-9.116zm-67.61 131.488a1.335 1.335 0 0 1-1.318-1.133c-1.007-6.59-1.097-13.383-1.184-19.952-.022-1.624-.043-3.244-.078-4.858-.375-17.281 2.878-40.844 20.506-54.963 9.527-7.625 26.116-14.893 38.355-19.647a1.33 1.33 0 0 1 1.092.057 1.334 1.334 0 0 1 .85 2.456c-5.019 3.182-8.796 10.17-11.152 17.048a1.341 1.341 0 0 1-.353 1.064 61.114 61.114 0 0 0-1.311 4.702c-1.476 6.267-2.549 20.307.66 24.798.262.365.312.818.175 1.213a1.335 1.335 0 0 1-.078.387c-7.16 19.827-24.882 38.825-45.151 48.399a1.333 1.333 0 0 1-.053.023 1.329 1.329 0 0 1-.96.406zm19.595-78.821a43.948 43.948 0 0 0-5.895 5.703c3.837.81 7.588 1.952 11.227 3.06 5.045 1.536 10.262 3.124 15.638 3.79.357.044.662.224.872.482.278-4.197.887-7.997 1.371-10.053.3-1.273.655-2.592 1.065-3.93-2.4-.467-5.324-1.42-8.383-2.419-2.637-.86-5.364-1.75-7.558-2.234a1.375 1.375 0 0 1-.022-.005c-3.108 1.826-5.943 3.707-8.315 5.606zm-19.505 52.82c.035 1.621.056 3.25.078 4.881.077 5.847.157 11.874.891 17.703 16.259-8.022 30.696-22.228 38.849-37.837-2.656-.218-5.44-.702-8.145-1.172-2.477-.43-5.038-.876-7.472-1.112-6.492-.633-14.775-1.878-21.992-5.882-1.891 8.112-2.364 16.312-2.21 23.42zm43.449-23.42c-2.002-3.343-2.42-9.126-2.198-14.575a1.333 1.333 0 0 1-1.103.377c-5.606-.694-10.935-2.317-16.088-3.886-3.921-1.193-7.976-2.428-12.06-3.214a1.34 1.34 0 0 1-.254-.076c-4.242 5.656-7.05 12.1-8.857 18.69 6.923 4.045 15.15 5.283 21.57 5.91 2.535.246 5.146.7 7.671 1.139 3.156.548 6.136 1.066 8.966 1.213h.01a67.338 67.338 0 0 0 2.343-5.578zm8.502-46.57c-6.729 2.75-14.178 6.075-20.787 9.674 1.632.471 3.366 1.037 5.064 1.59 3.007.982 6.1 1.99 8.399 2.398 1.742-4.93 4.2-9.904 7.324-13.661zm-36.595 72.054a8.708 8.708 0 0 1-3.12-.583c-3.602-1.387-6.598-5.325-5.355-10.169.56-2.183 2.101-4.013 4.228-5.022 2.13-1.013 4.535-1.043 6.602-.088 2.638 1.22 4.524 3.088 5.31 5.255.606 1.676.572 3.467-.1 5.335-.012.18-.061.358-.15.527-.092.176-.188.347-.286.511-.03.058-.062.112-.099.163-1.794 2.898-4.462 4.07-7.03 4.07zm-.82-13.886c-.768 0-1.548.175-2.282.524-1.408.668-2.424 1.861-2.786 3.275-.895 3.487 1.304 6.08 3.727 7.013 2.175.838 5.08.603 6.935-2.425.706-1.53.835-2.942.38-4.198-.54-1.493-1.933-2.822-3.92-3.742a4.885 4.885 0 0 0-2.053-.447zm-2.243-20.41c-.449-1.318.506-2.827 1.925-2.892 1.087-.049 1.884.453 2.335 1.448.211.465.113 1.12-.101 1.568a2.09 2.09 0 0 1-.421.594l.005-.004c-1.031 1.35-3.227.803-3.743-.715zm11.12 3.645a2.7 2.7 0 0 1-1.93-.662c-1.191-1.022-1.096-2.953.208-3.838.861-.585 1.98-.516 2.782.067.363.188.676.458.903.806.402.621.55 1.526.166 2.201-.457.805-1.182 1.363-2.129 1.426zm6.032.416c-1.799-2.65 2.321-5.448 4.122-2.8zm-2.987-21.678c-.687-.378-1.168-.995-1.22-1.796-.053-.757.308-1.5.936-1.928a2.168 2.168 0 0 1 2.137-.162c.027.01.052.033.077.044a7.9 7.9 0 0 0-.766-.004 1.94 1.94 0 0 1 1.42.525c.181.204.327.44.382.685.025.116.091.16.168.162.202.603.14 1.3-.33 1.883-.644.803-1.885 1.097-2.804.591zm2.584-3.321a2.353 2.353 0 0 0-.654-.52c2.315.126 1.596 1.372 1.204 1.367a2.012 2.012 0 0 0-.55-.847zm8.215 5.452a2.26 2.26 0 0 1-2.226.17c-.577-.274-.907-.731-1.157-1.302-.016-.039-.036-.078-.052-.117-.866-1.98 2.019-3.938 3.536-2.403.032.03.062.061.091.091.577.583.91 1.292.748 2.128-.11.58-.45 1.1-.94 1.433zm-20.87 42.947c-1.076.731-2.586.443-3.315-.633a2.408 2.408 0 0 1 .632-3.316 2.41 2.41 0 0 1 3.316.634c.73 1.075.443 2.584-.633 3.315zm-54.814-46.925c-.105.03-.21.064-.316.095-.874.266-1.776-.462-1.6-1.392.18-.932 1.285-1.272 2.002-.703l.258.203c.62.492.41 1.567-.344 1.797zm1.893-3.804c-.45-.664 1.393-1.916 1.843-1.252zm12.884-7.71a.562.562 0 0 1-.175.05c-.257.07-.53.054-.785.005a1.09 1.09 0 0 1-.871-.984c-.036-.527.283-.883.727-1.095.687-.327 1.849.065 1.811.963-.02.523-.24.836-.707 1.062zm.436-3.277c-.45-.663 1.229-1.803 1.679-1.14zm11.55-3.185c-.739-.026-1.18-.775-.722-1.398-.09.121.176-.246.202-.275.12-.125.248-.24.381-.355.206-.177.473-.279.746-.273.25.004.536.085.668.323.499.908-.25 2.015-1.275 1.978zm3.853-2.438c-.902-1.325.539-2.301 1.44-.976zm5.098-2.031a.978.978 0 0 1-.637.224c-.526-.01-.887-.357-.91-.85-.002.123-.004.193-.032-.201a1.608 1.608 0 0 1 .027-.336c.08-.255.153-.481.353-.672.482-.465 1.25-.515 1.662.089.268.396.207.842-.043 1.19-.012.037-.017.055-.036.102-.049.075-.097.15-.144.227a1.094 1.094 0 0 1-.24.227zm8.098-4.029c-.45-.664 1.154-1.753 1.604-1.09zm6.673-1.055c-.036.013-.066.033-.104.037-.852.207-1.462-.67-.944-1.387.5-.69 1.501-.726 1.995-.017.49.7-.246 1.528-.947 1.367zm7.533-4.232c-.04.02-.08.042-.117.064a.927.927 0 0 1-1.042-1.532c.034-.028.068-.058.104-.085.937-.776 2.12.966 1.055 1.553zm3.412-3.778c-.45-.661 1.31-1.858 1.76-1.195zm3.68-2.5c-.451-.662 1.018-1.66 1.468-.998zm7.186-5.014c-.122.01-.244.023-.365.035-.585.057-1.06-.513-.953-1.075.107-.562.76-.917 1.283-.649l.326.166c.72.369.515 1.446-.291 1.523zm2.499-3.502c-.45-.664 1.051-1.684 1.5-1.02zm1.992-3.293c-.45-.662 1.01-1.655 1.46-.992zm5.456-7.132a32.09 32.09 0 0 0-.365.018c-.53.023-.968-.447-.868-.982.103-.53.684-.807 1.167-.59l.333.15c.676.302.468 1.37-.267 1.404zm.859-3.938c-.45-.663 1.072-1.696 1.523-1.034zm-79.1 120.422c-1.03 0-2.11-.158-3.245-.5-5.713-1.718-9.235-5.64-9.663-10.754-.422-5.05 2.298-10.212 6.468-12.273 3.442-1.7 7.301-.968 10.589 2.01 2.294 2.077 2.061 5.86.53 8.172-1.287 1.943-3.892 3.45-7.348 1.849a1.335 1.335 0 0 1 1.123-2.423c2.152.997 3.362.06 3.999-.9 1.021-1.543.976-3.747-.096-4.718-2.505-2.27-5.138-2.82-7.613-1.597-3.174 1.569-5.32 5.72-4.99 9.658.335 4.023 3.095 7.013 7.77 8.42 7.839 2.357 12.857-7.251 16.519-14.27.362-.694.71-1.363 1.047-1.99.211-.395.418-.798.62-1.209.368-1.12.786-2.278 1.253-3.476.117-.302.333-.537.596-.683.074-.18.148-.362.22-.544-.243.17-.494.33-.75.48-1.503.875-3.088 1.315-4.735 1.315-.849 0-1.714-.117-2.593-.351-3.561-.947-5.922-3.4-6.477-6.732-.562-3.374.859-6.944 3.455-8.683 2.155-1.444 4.812-1.387 7.29.15 1.677 1.042 2.542 2.309 2.572 3.766.05 2.461-2.416 4.208-2.697 4.399a1.334 1.334 0 1 1-1.5-2.21c.504-.347 1.547-1.334 1.527-2.138-.015-.616-.721-1.182-1.311-1.548-1.593-.99-3.113-1.059-4.395-.2-1.726 1.155-2.697 3.69-2.307 6.026.38 2.284 1.989 3.915 4.529 4.59 1.9.505 3.633.278 5.297-.692 2.095-1.22 3.735-3.413 4.947-5.6.806-2.094 1.659-4.224 2.613-6.324l.052-.187c.054-.205.152-.387.282-.537 2.672-5.717 6.145-11.155 11.513-14.978a1.334 1.334 0 1 1 1.549 2.174c-5.071 3.612-8.301 8.775-10.864 14.388a34.238 34.238 0 0 1-2.713 6.577c-.32.834-.635 1.668-.95 2.5-1.281 3.39-2.502 6.62-3.932 9.544-3.822 11.714-.933 15.707 1.285 17.06 1.65 1.004 3.17.294 3.93-.22 1.36-.921 2.232-2.525 2.03-3.73-.156-.927-.94-1.585-2.333-1.958a1.336 1.336 0 0 1 .69-2.58c3.268.876 4.082 2.942 4.276 4.096.377 2.24-.926 4.865-3.167 6.382-1.16.785-2.43 1.18-3.683 1.18a5.997 5.997 0 0 1-3.132-.89c-3.262-1.989-4.726-5.694-4.383-10.93-3.236 5.542-7.58 11.089-13.694 11.089zM242.392 408c-.454 0-.876-.233-1.12-.608a1.326 1.326 0 0 1-.532-.324c-2.637-2.617-5.256-5.089-7.789-7.479-13.16-12.42-24.526-23.146-27.77-44.066-3.073-19.802 4.175-34.585 11.847-50.236 1.98-4.04 4.027-8.214 5.927-12.542 6.678-15.21 7.593-27.558 2.725-36.717a1.333 1.333 0 0 1-1.648-.514 1.335 1.335 0 0 1 .412-1.842c1.55-.985 3.396-2.036 5.35-3.149.677-.385 1.375-.782 2.084-1.19a1.335 1.335 0 0 1 .59-.341c2.56-1.485 5.23-3.108 7.571-4.83l.042-.07c.194-.304.492-.503.818-.58 1.665-1.29 3.12-2.633 4.188-4.012a1.34 1.34 0 0 1 .196-.204 1.336 1.336 0 0 1 2.105-.455c7.37 6.533 10.787 17.467 13.531 26.253 6.684 21.402.718 37.623-6.189 56.405-1.12 3.048-2.28 6.2-3.4 9.423-10.296 29.637-12.722 53.609-7.637 75.44A1.334 1.334 0 0 1 242.39 408zM225.4 293.819c-1.922 4.378-3.982 8.58-5.974 12.643-7.483 15.264-14.55 29.68-11.607 48.653 3.104 20.015 14.161 30.45 26.965 42.533a591.26 591.26 0 0 1 5.435 5.173c-4-21.225-1.236-44.494 8.589-72.775 1.128-3.246 2.292-6.41 3.416-9.469 6.74-18.324 12.56-34.15 6.147-54.687-2.51-8.032-5.6-17.925-11.725-24.077-.913 1.068-1.993 2.093-3.186 3.08 2.93 2.733 5.395 7.538 7.328 12.663a1.332 1.332 0 0 1 .648 1.786c2.278 6.515 3.703 13.217 4.147 16.607 1.56 11.944-1.567 24.24-4.466 32.453-1.792 5.08-3.857 10.03-5.855 14.817-1.407 3.37-2.861 6.856-4.21 10.364-8.762 22.782-10.87 41.307-6.269 55.06a1.335 1.335 0 0 1-1.649 1.702 1.328 1.328 0 0 1-.856-.42c-6.976-7.492-13.076-17.24-16.32-26.077-3.544-9.66-2.818-18.834-1.505-27.31 2.054-13.242 6.95-23.53 11.686-33.481 3.048-6.406 6.2-13.03 8.476-20.28 1.749-5.559 3.403-18.86-2.325-30.603l-1.174.67c-1.096.623-2.158 1.228-3.145 1.808 5.346 9.928 4.482 23.101-2.57 39.167zm12.497-33.336c3.662.104 6.885-.926 10.27-2.301-1.928-5.009-4.29-9.457-6.856-11.63-2.093 1.513-4.4 2.936-6.703 4.284 1.56 3.16 2.614 6.43 3.289 9.647zm.727 15.597c3.078 1.077 8.032.849 14.112-.667.024-.006.048-.012.073-.016-.604-4-1.925-9.495-3.726-14.705-3.46 1.402-6.794 2.469-10.655 2.469h-.052c.698 4.688.646 9.167.248 12.919zm-1.462 7.497c-1.01 3.22-2.184 6.306-3.44 9.297 3.945 1.514 8.617 1.303 13.148 1.098 1.791-.081 3.635-.163 5.398-.133.9-5.007 1.35-10.414.863-15.774-2.932.718-6.46 1.352-9.778 1.352-1.802 0-3.541-.187-5.09-.649-.312 1.913-.704 3.548-1.1 4.809zm-8.612 20.627a772.3 772.3 0 0 0-1.728 3.647c4.302 1.56 9.218 1.234 13.982.917 2.46-.164 4.996-.333 7.433-.24.122-.338.243-.676.362-1.014 1.11-3.146 2.256-6.907 3.142-11.012-1.518-.008-3.098.063-4.75.138-1.626.073-3.27.148-4.904.148-3.24 0-6.447-.293-9.421-1.46-1.336 3.033-2.737 5.976-4.116 8.876zm-9.128 22.339c1.502.021 3.036.086 4.634.155 5.837.252 11.873.512 16.834-1.525.23-.094.472-.12.702-.086.403-.973.807-1.94 1.206-2.896 1.498-3.59 3.035-7.272 4.458-11.017-2.012-.026-4.095.113-6.274.258-2.04.135-4.107.272-6.162.272-3.109 0-6.193-.313-9.127-1.423-2.339 5.1-4.56 10.414-6.271 16.262zm-2.33 10.403c-.337 2.173-.634 4.392-.824 6.651 7.063-.973 14.502-2.893 20.187-5.218a180.704 180.704 0 0 1 2.104-5.755 256.745 256.745 0 0 1 1.744-4.4c-3.27 1.04-6.787 1.314-10.346 1.314-2.003 0-4.02-.087-6.016-.173-1.828-.08-3.568-.153-5.252-.16a80.214 80.214 0 0 0-1.597 7.74zm1.192 25.48c.651-.21 1.306-.417 1.964-.626 3.23-1.028 6.57-2.089 9.67-3.376a1.333 1.333 0 0 1 1.173.073c.934-5.298 2.356-10.911 4.265-16.83-5.697 2.09-12.667 3.78-19.261 4.647-.217 5.201.252 10.596 2.19 16.112zm12.55 21.75c-1.394-6.826-1.443-14.567-.152-23.179-3.129 1.282-6.43 2.332-9.626 3.346-.607.194-1.212.386-1.814.58 2.64 6.405 6.832 13.348 11.591 19.252zm38.744-110.68l-.722-3.088a363.121 363.121 0 0 1-.747-3.292c-2.419-10.792-6.074-27.101-15.932-31.667a1.335 1.335 0 0 1-.72-1.585 1.334 1.334 0 0 1 1.907-1.094c7.833 3.748 13.289 8.69 17.17 15.552 5.36 9.475 6.6 13.31.748 22.498zm-6.921-31.2c4.264 7.32 6.426 16.957 8.053 24.216 3.215-6.178 1.778-9.313-2.5-16.876-1.579-2.79-3.397-5.207-5.553-7.34zm44.226 141.175c-.275 0-.552-.084-.79-.259-5.367-3.945-10.23-8.68-14.933-13.26-1.167-1.137-2.332-2.271-3.502-3.391-12.484-11.955-26.845-30.919-24.364-53.364 1.344-12.128 7.935-28.998 13.227-41.014.16-.365.465-.62.817-.733a1.335 1.335 0 0 1 2.335 1.138c-1.3 5.802.972 13.416 4.171 19.943a1.342 1.342 0 0 1 .498.993 61.013 61.013 0 0 0 2.401 4.254c3.385 5.476 12.55 16.163 18 17.071.44.073.793.354.977.726.09.097.165.21.224.335 8.956 19.085 9.857 45.05 2.295 66.15a1.355 1.355 0 0 1-.02.055 1.334 1.334 0 0 1-1.336 1.356zm-40.936-69.98a43.943 43.943 0 0 0-.135 8.2c3.285-2.141 6.746-3.986 10.102-5.776 4.654-2.481 9.465-5.047 13.738-8.378.282-.22.625-.31.956-.276-2.77-3.163-5.025-6.281-6.135-8.077a62.119 62.119 0 0 1-2.027-3.531c-2.028 1.368-4.774 2.762-7.646 4.22-2.47 1.256-5.025 2.554-6.918 3.76a1.379 1.379 0 0 1-.018.012c-.907 3.49-1.582 6.826-1.917 9.846zm23.558 51.142c1.175 1.124 2.345 2.264 3.518 3.406 4.185 4.077 8.5 8.278 13.136 11.877 5.823-17.168 5.987-37.423.716-54.225-2.032 1.723-4.343 3.35-6.588 4.93-2.056 1.447-4.182 2.944-6.07 4.498-5.039 4.143-11.776 9.12-19.709 11.392 4.399 7.072 9.863 13.205 14.997 18.122zm14.164-47.283c-3.782-.948-8.167-4.741-11.861-8.752-.003.394-.18.783-.515 1.044-4.454 3.474-9.369 6.094-14.122 8.629-3.617 1.928-7.357 3.923-10.801 6.255-.075.05-.153.093-.233.126 1 6.998 3.57 13.54 6.953 19.479 7.754-2.035 14.448-6.977 19.43-11.074 1.966-1.618 4.134-3.144 6.23-4.62 2.62-1.843 5.094-3.584 7.199-5.482l.007-.006a67.353 67.353 0 0 0-2.287-5.6zm-26.92-38.943c-2.813 6.702-5.729 14.32-7.857 21.538 1.485-.819 3.11-1.644 4.699-2.452 2.822-1.434 5.726-2.909 7.64-4.247-2.255-4.717-4.034-9.971-4.481-14.84zm18.783 79.392c-2.742 0-5.57-1.244-7.304-4.175-1.148-1.941-1.352-4.326-.562-6.543.791-2.221 2.47-3.944 4.606-4.73 2.73-.999 5.383-1.013 7.47-.036 1.615.755 2.856 2.045 3.702 3.84.118.136.21.298.267.48.06.19.112.377.16.563.02.06.034.122.044.183 1.111 4.716-1.493 8.216-4.71 9.645-1.124.5-2.39.773-3.673.773zm.765-13.541c-.963 0-2.016.2-3.105.6-1.389.51-2.486 1.647-3.011 3.119-.524 1.469-.398 3.031.345 4.287 1.834 3.1 5.225 3.375 7.596 2.322 2.128-.945 4.017-3.165 3.19-6.617-.584-1.582-1.492-2.67-2.701-3.237-.677-.316-1.46-.474-2.314-.474zm-20.892-11.11c-1.25-.616-1.64-2.357-.683-3.406.733-.804 1.652-1.013 2.674-.627.479.178.873.712 1.038 1.179a2.075 2.075 0 0 1 .123.71c.225 1.686-1.713 2.85-3.152 2.143zm10.44-5.286a2.695 2.695 0 0 1-1.832.897c-1.565.12-2.861-1.314-2.567-2.861.196-1.023 1.037-1.765 2.016-1.92a2.379 2.379 0 0 1 1.208-.069c.722.155 1.468.69 1.673 1.44.246.891.128 1.797-.497 2.513zm4.561-3.971c-3.147-.602-2.212-5.494.934-4.894zm-17.44-13.216c-.754.217-1.53.122-2.134-.406a2.166 2.166 0 0 1-.7-2.026 2.161 2.161 0 0 1 1.396-1.627c.026-.01.06-.013.086-.023-.17.153-.35.325-.545.54a1.94 1.94 0 0 1 1.375-.635c.272.018.542.08.754.215.1.064.177.05.233-.005.569.284 1.02.822 1.099 1.567.112 1.021-.557 2.107-1.564 2.4zm-.522-4.177c-.29-.02-.58.019-.83.095 1.726-1.548 2.099-.158 1.817.115a2.008 2.008 0 0 0-.987-.21zm9.664-1.952a2.263 2.263 0 0 1-1.454 1.692c-.602.215-1.16.126-1.737-.102l-.122-.046c-2.011-.786-1.357-4.21.801-4.198a2.39 2.39 0 0 1 .13 0c.82.004 1.555.27 2.033.975.333.489.459 1.097.35 1.679zm15.61 45.125c-.244 1.277-1.513 2.142-2.79 1.898-1.28-.245-2.144-1.516-1.9-2.793a2.41 2.41 0 0 1 2.794-1.897c1.276.244 2.14 1.514 1.896 2.792zm-71.939 5.578c-.054.097-.104.194-.156.291-.431.806-1.582.929-2.117.147-.532-.785.01-1.809.918-1.912l.326-.04c.787-.09 1.4.819 1.03 1.514zm-1.352-4.029c-.786-.151-.368-2.34.418-2.188zm4.01-13.71a.566.566 0 0 1-.087.158c-.133.23-.337.412-.552.558a1.09 1.09 0 0 1-1.312-.08c-.398-.348-.424-.826-.261-1.289.254-.717 1.353-1.261 1.962-.6.357.386.422.763.25 1.252zm-1.967-3.402c-.786-.15-.406-2.144.381-1.993zm5.52-10.493c-.54.503-1.383.284-1.497-.48.022.154-.05-.298-.05-.337a5.494 5.494 0 0 1 .017-.52c.021-.27.136-.531.333-.72.18-.174.44-.32.702-.245.993.29 1.247 1.602.495 2.302zm1.396-4.374c-1.574-.3-1.248-2.009.326-1.708zm1.775-5.116a.98.98 0 0 1-.292.608c-.377.365-.877.375-1.243.045.085.087.129.136-.167-.123a1.472 1.472 0 0 1-.216-.255c-.127-.237-.235-.449-.228-.725.014-.67.52-1.25 1.238-1.112.47.09.74.449.814.872.015.033.025.051.044.098.02.086.038.174.06.263.011.108.01.219-.01.329zm3.27-8.5c-.786-.15-.422-2.056.364-1.906zm3.931-4.69c-.016.032-.023.071-.048.1-.454.749-1.506.56-1.647-.315-.135-.839.549-1.574 1.398-1.422.842.15.907 1.255.297 1.636zm1.983-9.17a3.86 3.86 0 0 0-.038.13.927.927 0 0 1-1.82-.347c.004-.045.008-.09.014-.135.114-1.211 2.182-.815 1.844.352zm.135-5.007c-.787-.15-.388-2.24.399-2.09zm.834-4.37c-.787-.15-.454-1.895.333-1.745zm1.142-8.703c-.079.094-.156.19-.232.282-.374.455-1.113.387-1.434-.085-.322-.473-.113-1.186.447-1.366l.348-.114c.77-.248 1.385.658.871 1.283zm-.316-4.17c-.787-.15-.447-1.931.34-1.781zm-.918-3.735c-.787-.15-.457-1.884.33-1.734zm-1.58-8.977l-.246.271c-.358.392-1 .369-1.307-.078-.303-.45-.088-1.057.408-1.245l.34-.13c.692-.264 1.301.638.806 1.182zm-1.783-3.317c-.787-.15-.442-1.956.345-1.808zm19.096 144.884c-2.705 0-5.228-.906-7.357-2.706-3.87-3.274-5.595-8.848-4.104-13.253 1.23-3.636 4.478-5.846 8.908-6.065 3.114-.18 5.602 2.686 6.154 5.404.464 2.284-.314 5.192-3.888 6.502a1.334 1.334 0 1 1-.919-2.507c2.226-.816 2.42-2.334 2.19-3.463-.368-1.813-1.975-3.332-3.404-3.27-3.375.167-5.626 1.638-6.512 4.255-1.135 3.353.283 7.807 3.3 10.358 3.082 2.608 7.148 2.772 11.45.461 7.216-3.878 3.962-14.224 1.586-21.779-.234-.745-.46-1.46-.665-2.141-.13-.431-.27-.865-.419-1.301a68.375 68.375 0 0 1-1.568-3.336 1.328 1.328 0 0 1-.061-.904l-.229-.54c-.052.292-.116.582-.191.868-.672 2.55-2.186 4.523-4.5 5.864-1.543.895-3.136 1.342-4.681 1.342-1.648 0-3.241-.508-4.66-1.521-2.783-1.988-4.303-5.518-3.696-8.583.503-2.545 2.42-4.385 5.26-5.05 1.922-.447 3.43-.165 4.482.845 1.775 1.705 1.267 4.682 1.203 5.016a1.341 1.341 0 0 1-1.561 1.061 1.335 1.335 0 0 1-1.061-1.562c.11-.602.15-2.036-.433-2.592-.446-.425-1.347-.326-2.023-.167-1.825.426-2.949 1.453-3.248 2.967-.404 2.038.703 4.516 2.63 5.892 1.884 1.346 4.175 1.362 6.448.043 1.701-.986 2.767-2.372 3.258-4.235.617-2.341.228-5.046-.459-7.446-.914-2.058-1.82-4.175-2.632-6.343a10.003 10.003 0 0 0-.09-.157 1.33 1.33 0 0 1-.179-.57c-2.154-5.935-3.546-12.239-2.452-18.741a1.336 1.336 0 0 1 2.633.443c-1.033 6.136.332 12.067 2.487 17.846a34.215 34.215 0 0 1 2.74 6.587c.361.812.726 1.621 1.09 2.428 1.482 3.284 2.894 6.413 3.949 9.474 2.964 5.806 7.642 12.514 12.992 11.212 1.878-.456 2.45-2.034 2.623-2.934.31-1.613-.206-3.364-1.201-4.073-.765-.544-1.786-.456-3.035.264a1.334 1.334 0 1 1-1.335-2.312c2.929-1.692 4.965-.806 5.919-.127 1.85 1.318 2.786 4.095 2.274 6.753-.494 2.564-2.22 4.442-4.615 5.024a8.574 8.574 0 0 1-2.019.245c-3.016 0-5.977-1.649-8.81-4.877 1.908 7.254 2.748 15.58-4.488 19.469-2.402 1.29-4.805 1.932-7.081 1.932zm113.497-76.877c-.092 0-.184-.009-.275-.028a1.328 1.328 0 0 1-.606.148c-3.716.014-7.316.118-10.798.219-3.544.102-6.998.202-10.383.202-13.887 0-26.675-1.677-40.41-11.726-16.178-11.832-21.507-27.411-27.148-43.904-1.455-4.255-2.96-8.655-4.676-13.056-6.03-15.475-14.115-24.854-24.036-27.89a1.336 1.336 0 0 1-2.542-.79c.4-1.792.962-3.837 1.556-6.003.207-.755.42-1.534.635-2.328a1.334 1.334 0 0 1 .174-.65c.76-2.86 1.501-5.897 1.939-8.771a1.331 1.331 0 0 1 .15-1.068c.263-2.09.343-4.068.122-5.797a1.339 1.339 0 0 1-.006-.286 1.334 1.334 0 0 1 1.168-1.808c9.823-.608 19.979 4.722 28.132 8.995 19.86 10.409 27.112 26.097 35.509 44.262 1.363 2.947 2.771 5.994 4.259 9.066 13.673 28.234 28.907 46.9 47.943 58.745a1.334 1.334 0 0 1-.707 2.468zm-91.808-69.115c1.736 4.454 3.25 8.88 4.714 13.161 5.502 16.086 10.699 31.278 26.198 42.614 16.345 11.958 31.541 11.518 49.14 11.01 2.442-.071 4.941-.143 7.503-.185-17.839-12.183-32.338-30.59-45.386-57.535-1.498-3.093-2.912-6.151-4.28-9.109-8.192-17.723-15.268-33.03-34.325-43.017-7.453-3.905-16.635-8.708-25.317-8.735.11 1.401.072 2.89-.073 4.432 4.003-.14 9.144 1.515 14.136 3.773a1.33 1.33 0 0 1 1.721.804c6.217 2.995 11.963 6.725 14.675 8.808 9.548 7.342 16.032 18.25 19.79 26.107 2.328 4.864 4.37 9.83 6.344 14.631 1.387 3.374 2.82 6.862 4.344 10.292 9.914 22.305 21.522 36.895 34.503 43.366a1.335 1.335 0 0 1 .03 2.374 1.33 1.33 0 0 1-.848.305l-.048-.001c-10.227-.365-21.434-2.944-29.979-6.899-9.342-4.328-15.315-11.329-20.377-18.249-7.91-10.815-11.724-21.553-15.411-31.938-2.374-6.684-4.829-13.596-8.346-20.333-2.695-5.166-10.933-15.741-23.284-19.995-.12.441-.24.88-.36 1.313-.332 1.213-.654 2.387-.941 3.492 10.803 3.244 19.507 13.17 25.877 29.514zm36.745 18.135a257.761 257.761 0 0 1-1.879-4.345c-2.465 4.766-6.677 8.63-10.763 12.38-1.348 1.236-2.632 2.414-3.827 3.599a80.225 80.225 0 0 0 4.344 6.602c1.298 1.775 2.657 3.554 4.12 5.287 4.31-5.69 8.214-12.307 10.586-17.965a180.68 180.68 0 0 1-2.581-5.558zm-4.375-10.36c-1.48-3.602-2.999-7.297-4.643-10.956-1.44 1.404-2.815 2.975-4.253 4.617-3.385 3.867-6.876 7.855-11.627 9.998 1.953 5.26 4.14 10.589 7.065 15.934 1.077-1.047 2.207-2.084 3.385-3.166 4.306-3.95 8.758-8.035 10.827-12.984.096-.23.249-.419.435-.557l-1.189-2.886zm-6.282-14.495c-1.44-3.009-3.29-6.478-5.566-10.008-1.08 1.069-2.149 2.238-3.266 3.46-3.272 3.582-6.647 7.278-11.05 9.2 1.199 3.088 2.29 6.159 3.363 9.184.449 1.262.899 2.53 1.358 3.802 4.147-1.94 7.392-5.646 10.538-9.24 1.623-1.854 3.296-3.766 5.085-5.424-.153-.325-.307-.65-.462-.974zm-40.824-25.687c2.665-2.517 4.214-5.523 5.634-8.888-4.906-2.179-9.72-3.656-13.072-3.378-.408 2.55-1.033 5.187-1.709 7.77 3.338 1.132 6.395 2.698 9.147 4.496zm11.543 10.515c2.94-1.416 6.281-5.081 9.507-10.452l.04-.063c-3.257-2.4-8.076-5.351-13.033-7.76-1.46 3.452-3.07 6.574-5.825 9.314 3.81 2.822 6.94 6.026 9.311 8.96zm4.268 6.333c1.563 2.993 2.915 6.004 4.142 9.008 3.858-1.719 7.01-5.17 10.068-8.518 1.21-1.325 2.457-2.688 3.726-3.915-2.904-4.177-6.409-8.318-10.542-11.764-2.415 3.983-5.975 8.828-10.015 11.012 1.131 1.573 2.01 3.006 2.621 4.177zm42.405 69.103c.309-.601.621-1.205.935-1.81 1.563-3.017 3.178-6.136 4.461-9.244.164-.397.498-.672.882-.778-3.085-4.407-6.049-9.381-8.884-14.916-2.548 5.502-6.282 11.624-10.335 16.905 3.523 3.83 7.67 7.312 12.94 9.843zm24.252 6.507c-5.812-3.842-11.32-9.281-16.495-16.283-1.308 3.126-2.905 6.21-4.451 9.194-.29.558-.578 1.115-.864 1.67 6.398 2.664 14.271 4.608 21.81 5.419zm-50.864-105.657l-2.695-1.674c-.899-.558-1.852-1.163-2.851-1.796-9.343-5.923-23.458-14.875-33.663-11.13a1.335 1.335 0 0 1-1.633-.616 1.334 1.334 0 0 1 .58-2.117c8.187-2.89 15.54-3.253 23.136-1.146 10.49 2.91 14.08 4.745 16.439 15.382zm-26.96-17.17c8.194 2.16 16.536 7.447 22.822 11.431-2.095-6.643-5.33-7.844-13.701-10.168-3.09-.857-6.091-1.265-9.121-1.263zM375.56 259.82c-16.99 0-38.983-3.757-52.42-20.534-7.622-9.524-14.89-26.114-19.646-38.355a1.332 1.332 0 0 1 .058-1.096 1.335 1.335 0 0 1 2.456-.846c3.183 5.022 10.174 8.8 17.053 11.153a1.33 1.33 0 0 1 1.051.35c1.603.516 3.189.953 4.707 1.31 6.267 1.478 20.305 2.553 24.798-.657.364-.26.815-.312 1.21-.177.13.006.261.031.39.078 19.828 7.16 38.826 24.884 48.4 45.151l.026.057a1.335 1.335 0 0 1-.73 2.275c-6.583 1.007-13.367 1.097-19.928 1.184-1.632.021-3.26.043-4.882.079-.833.017-1.682.028-2.543.028zm-50.335-22.203a43.974 43.974 0 0 0 5.702 5.895c.81-3.836 1.951-7.585 3.059-11.223 1.536-5.046 3.125-10.264 3.79-15.644a1.33 1.33 0 0 1 .482-.87c-4.196-.279-7.995-.889-10.051-1.373a62.163 62.163 0 0 1-3.93-1.065c-.467 2.4-1.421 5.326-2.42 8.386-.86 2.636-1.749 5.362-2.233 7.555a1.395 1.395 0 0 1-.005.022c1.826 3.11 3.707 5.945 5.606 8.317zm52.82 19.505c1.629-.035 3.264-.056 4.904-.08 5.84-.076 11.858-.156 17.681-.89-8.022-16.258-22.23-30.695-37.838-38.849-.218 2.657-.703 5.445-1.173 8.151-.43 2.474-.875 5.034-1.112 7.467-.633 6.493-1.878 14.779-5.884 21.999 8.114 1.893 16.316 2.364 23.422 2.202zm-23.419-43.45c-2.82 1.691-7.38 2.253-12.009 2.253-.857 0-1.715-.02-2.566-.054.277.28.427.68.375 1.102-.694 5.608-2.317 10.938-3.886 16.094-1.193 3.919-2.427 7.973-3.214 12.055a1.34 1.34 0 0 1-.076.254c5.655 4.243 12.098 7.055 18.688 8.863 4.046-6.924 5.286-15.156 5.912-21.577.247-2.533.7-5.142 1.139-7.665.548-3.158 1.067-6.14 1.214-8.973v-.009a67.353 67.353 0 0 0-5.577-2.343zm-46.57-8.502c2.75 6.73 6.075 14.179 9.673 20.786.471-1.63 1.037-3.364 1.59-5.061.981-3.008 1.99-6.103 2.398-8.4-4.93-1.742-9.903-4.2-13.66-7.325zm63.513 45.356c-.71 0-1.45-.09-2.212-.286-2.182-.56-4.013-2.1-5.022-4.227-1.011-2.13-1.043-4.536-.087-6.602 1.221-2.64 3.088-4.524 5.255-5.31 1.674-.606 3.465-.573 5.333.097.18.014.359.062.528.151.174.092.343.186.506.283.061.032.119.066.173.106 4.115 2.551 4.748 6.866 3.483 10.148-1.17 3.035-4.15 5.64-7.957 5.64zm.386-14.18c-.537 0-1.052.088-1.542.266-1.493.54-2.822 1.933-3.742 3.92-.622 1.343-.594 2.925.076 4.336.668 1.408 1.862 2.423 3.274 2.786 3.49.898 6.08-1.304 7.013-3.727.838-2.174.604-5.081-2.426-6.938-.93-.429-1.818-.644-2.653-.644zm-26.143 8.482c-1.317.449-2.825-.506-2.892-1.924-.049-1.087.453-1.885 1.45-2.336.463-.211 1.12-.113 1.566.1a2.1 2.1 0 0 1 .594.422l-.004-.004c1.351 1.031.804 3.226-.714 3.742zm3.645-11.12a2.692 2.692 0 0 1-.661 1.93c-1.021 1.192-2.953 1.095-3.838-.208-.586-.86-.515-1.98.068-2.781.187-.363.457-.677.804-.903.622-.402 1.526-.55 2.203-.166.804.457 1.361 1.18 1.424 2.128zm.417-6.032c-2.651 1.8-5.45-2.32-2.799-4.123zm-21.678 2.987c-.378.687-.994 1.167-1.794 1.222a2.166 2.166 0 0 1-1.927-.939 2.16 2.16 0 0 1-.165-2.136c.01-.026.032-.05.043-.076a7.98 7.98 0 0 0-.002.765 1.939 1.939 0 0 1 .523-1.42c.206-.18.44-.327.686-.38.115-.027.159-.092.161-.17a1.95 1.95 0 0 1 1.883.332c.804.642 1.099 1.884.592 2.802zm-3.322-2.584c-.219.19-.396.423-.52.655.126-2.317 1.373-1.598 1.367-1.205a2.03 2.03 0 0 0-.847.55zm5.453-8.214c.443.654.51 1.513.17 2.224-.275.578-.731.908-1.302 1.157l-.118.054c-1.978.866-3.937-2.019-2.402-3.536.03-.032.06-.062.092-.093.583-.576 1.29-.907 2.127-.748.58.111 1.1.452 1.433.942zm42.947 20.87c.731 1.075.445 2.584-.632 3.314a2.409 2.409 0 0 1-3.316-.632 2.407 2.407 0 0 1 .634-3.315 2.409 2.409 0 0 1 3.314.632zm-46.926 54.813c.031.106.065.21.096.316.267.874-.462 1.776-1.391 1.599-.932-.177-1.274-1.283-.703-2l.201-.258c.493-.62 1.569-.412 1.797.343zm-3.803-1.892c-.663.447-1.916-1.395-1.252-1.843zm-6.507-11.682a.6.6 0 0 1 .048.175c.069.256.054.529.005.785a1.09 1.09 0 0 1-.985.87c-.526.035-.883-.283-1.095-.726-.327-.688.065-1.848.964-1.812.524.02.837.24 1.063.708zm-4.148-1.863c-.664.45-1.804-1.229-1.14-1.678zm-3.517-11.325c-.027.737-.772 1.178-1.394.725.11.082-.25-.18-.279-.207a5.175 5.175 0 0 1-.354-.38 1.118 1.118 0 0 1-.274-.745c.003-.25.085-.537.324-.669.906-.498 2.013.25 1.977 1.276zm-2.107-4.078c-1.325.9-2.302-.539-.977-1.44zm-2.362-4.874c.146.165.23.42.224.637-.01.527-.356.887-.85.91.123.002.194.005-.202.032a1.537 1.537 0 0 1-.334-.028c-.257-.077-.483-.152-.673-.351-.465-.483-.514-1.251.088-1.661.397-.27.842-.207 1.193.042.035.01.054.017.1.036.075.047.15.097.229.144.084.068.16.147.225.24zm-3.697-8.323c-.662.451-1.754-1.154-1.09-1.603zm-.187-5.245c.013.034.036.066.038.104.207.851-.67 1.461-1.388.942-.688-.498-.724-1.5-.017-1.993.702-.49 1.53.246 1.367.947zm-5.432-8.735c.02.04.041.08.065.117a.928.928 0 0 1-1.535 1.042c-.026-.034-.056-.068-.083-.105-.776-.937.966-2.12 1.553-1.054zm-3.447-3.637c-.66.45-1.857-1.31-1.194-1.76zm-2.5-3.68c-.662.45-1.66-1.019-.998-1.47zm-5.345-6.961c.01.121.023.244.034.364.058.585-.513 1.06-1.074.953-.56-.106-.918-.759-.65-1.282.057-.109.111-.217.167-.326.368-.72 1.444-.515 1.523.29zm-3.173-2.725c-.662.451-1.682-1.05-1.019-1.5zm-3.29-1.993c-.664.45-1.655-1.008-.992-1.46zm-7.464-5.23c.005.121.01.243.017.366.025.53-.447.968-.98.868-.532-.104-.809-.684-.592-1.167l.15-.334c.303-.676 1.371-.468 1.405.266zm-3.607-1.084c-.663.45-1.696-1.072-1.035-1.523zm107.8 92.277c-4.706 0-9.317-2.628-11.237-6.513-1.7-3.441-.967-7.3 2.011-10.588 2.076-2.295 5.858-2.061 8.17-.53 1.944 1.287 3.45 3.894 1.85 7.348a1.336 1.336 0 0 1-2.422-1.123c.997-2.151.06-3.362-.902-3.998-1.542-1.022-3.746-.977-4.717.096-2.268 2.503-2.82 5.136-1.596 7.612 1.568 3.174 5.725 5.309 9.657 4.991 4.024-.335 7.015-3.095 8.423-7.771 2.36-7.844-7.257-12.859-14.278-16.52-.692-.362-1.358-.71-1.986-1.045a41.257 41.257 0 0 0-1.21-.622 68.244 68.244 0 0 1-3.473-1.251 1.328 1.328 0 0 1-.682-.597l-.545-.22c.17.244.33.494.48.75 1.327 2.279 1.651 4.744.964 7.33-.947 3.56-3.4 5.92-6.731 6.475-.493.083-.99.123-1.486.123-2.893 0-5.713-1.36-7.197-3.578-1.444-2.154-1.39-4.81.149-7.287 1.042-1.679 2.308-2.544 3.765-2.574 2.442-.089 4.207 2.415 4.398 2.696a1.336 1.336 0 0 1-2.209 1.5c-.348-.503-1.326-1.566-2.138-1.527-.615.016-1.182.722-1.548 1.313-.99 1.593-1.058 3.112-.2 4.394 1.156 1.726 3.69 2.694 6.027 2.307 2.284-.38 3.914-1.99 4.59-4.53.504-1.898.28-3.629-.689-5.293-1.222-2.099-3.427-3.744-5.625-4.96-2.089-.803-4.212-1.655-6.307-2.606-.112-.033-.175-.05-.183-.052a1.33 1.33 0 0 1-.53-.278c-5.72-2.673-11.16-6.146-14.982-11.515a1.334 1.334 0 1 1 2.174-1.549c3.61 5.07 8.773 8.3 14.386 10.863.988.286 3.73 1.154 6.58 2.715.832.32 1.665.634 2.496.948 3.388 1.282 6.616 2.502 9.539 3.931 11.72 3.825 15.712.936 17.065-1.282 1.006-1.651.295-3.17-.219-3.93-.92-1.359-2.522-2.238-3.728-2.03-.928.156-1.587.941-1.96 2.333a1.336 1.336 0 0 1-2.579-.691c.876-3.268 2.942-4.08 4.096-4.275 2.24-.37 4.866.926 6.382 3.167 1.464 2.162 1.571 4.71.288 6.815-1.8 2.952-5.007 4.431-9.482 4.431-.469 0-.951-.016-1.448-.049 6.477 3.78 12.958 9.075 10.593 16.939-1.721 5.714-5.642 9.236-10.758 9.663-.345.029-.691.044-1.036.044zm-170.9-56.067c-25.253 0-45.798-20.545-45.798-45.798 0-25.254 20.545-45.799 45.798-45.799s45.798 20.545 45.798 45.799c0 25.253-20.545 45.798-45.798 45.798zm0-88.927c-23.78 0-43.128 19.347-43.128 43.129 0 23.78 19.347 43.128 43.128 43.128 23.78 0 43.128-19.347 43.128-43.128 0-23.782-19.347-43.129-43.128-43.129zm0 82.517c-21.72 0-39.39-17.669-39.39-39.388 0-21.72 17.67-39.39 39.39-39.39s39.389 17.67 39.389 39.39-17.67 39.388-39.39 39.388zm0-76.108c-20.247 0-36.72 16.472-36.72 36.72 0 20.247 16.473 36.719 36.72 36.719s36.719-16.472 36.719-36.72c0-20.247-16.472-36.719-36.72-36.719zm-3.664 71.11a1.339 1.339 0 0 1-1.193-1.47c.08-.73.739-1.263 1.469-1.183.738.071 1.263.73 1.193 1.469a1.34 1.34 0 0 1-1.335 1.192c-.045 0-.09 0-.134-.009zm5.998-1.194a1.334 1.334 0 1 1 1.469 1.175c-.044.009-.098.009-.143.009a1.33 1.33 0 0 1-1.326-1.184zm-13.305-.39a1.334 1.334 0 0 1-.845-1.692 1.333 1.333 0 0 1 1.69-.845c.695.24 1.077.996.837 1.69a1.325 1.325 0 0 1-1.682.846zm20.381-.883c-.24-.702.134-1.459.837-1.69.694-.24 1.459.133 1.69.836a1.33 1.33 0 0 1-1.263 1.763 1.325 1.325 0 0 1-1.264-.909zm-27.172-2.242v-.01a1.332 1.332 0 0 1-.462-1.824 1.336 1.336 0 1 1 .462 1.834zm33.811-.525a1.34 1.34 0 0 1 .445-1.834 1.334 1.334 0 0 1 1.833.454 1.334 1.334 0 0 1-.445 1.834 1.403 1.403 0 0 1-.694.187c-.453 0-.89-.222-1.139-.64zm-39.774-3.987a1.346 1.346 0 0 1-.053-1.896 1.335 1.335 0 1 1 .97 2.252 1.34 1.34 0 0 1-.917-.356zm45.657-.143a1.335 1.335 0 0 1 .044-1.887 1.336 1.336 0 0 1 1.843 1.931c-.258.25-.588.366-.917.366-.356 0-.712-.143-.97-.41zm-50.507-5.544a1.342 1.342 0 0 1 .347-1.86 1.343 1.343 0 0 1 1.86.355c.41.606.258 1.442-.356 1.852-.222.16-.49.231-.748.231-.427 0-.845-.196-1.103-.578zm55.375.249a1.335 1.335 0 0 1-.356-1.86 1.332 1.332 0 1 1 1.104 2.082 1.36 1.36 0 0 1-.748-.222zm-58.9-6.835v-.009a1.319 1.319 0 0 1 .74-1.727 1.342 1.342 0 0 1 1.744.739 1.346 1.346 0 0 1-1.246 1.834c-.525 0-1.024-.32-1.237-.837zm62.514.614a1.34 1.34 0 0 1-.748-1.735 1.342 1.342 0 0 1 1.736-.748 1.334 1.334 0 0 1 .747 1.735 1.332 1.332 0 0 1-1.237.846c-.17 0-.338-.036-.498-.098zm-64.534-7.814a1.346 1.346 0 0 1 1.104-1.54 1.332 1.332 0 0 1 1.53 1.104 1.323 1.323 0 0 1-1.094 1.53c-.071.018-.151.018-.222.018a1.343 1.343 0 0 1-1.318-1.112zm66.732.961a1.338 1.338 0 0 1-1.113-1.53c.116-.73.81-1.22 1.531-1.104.73.115 1.229.8 1.104 1.53a1.322 1.322 0 0 1-1.317 1.121c-.063 0-.134 0-.205-.017zm-65.886-7.023a1.339 1.339 0 0 1-1.264-1.396 1.34 1.34 0 0 1 1.398-1.273 1.343 1.343 0 0 1 1.272 1.406 1.337 1.337 0 0 1-1.335 1.263h-.071zm65.138-1.396a1.334 1.334 0 0 1 1.264-1.406 1.346 1.346 0 0 1 1.406 1.263 1.347 1.347 0 0 1-1.264 1.406h-.07c-.704 0-1.3-.551-1.335-1.263zm-64.293-5.74a1.34 1.34 0 0 1-.934-1.647 1.346 1.346 0 0 1 1.646-.935c.703.196 1.13.935.935 1.647a1.348 1.348 0 0 1-1.647.934zm63.181-1.06a1.327 1.327 0 0 1 .925-1.646 1.327 1.327 0 0 1 1.647.925 1.34 1.34 0 0 1-.934 1.646 1.18 1.18 0 0 1-.356.045 1.33 1.33 0 0 1-1.282-.97zm-60.804-5.731a1.333 1.333 0 0 1-.561-1.807 1.336 1.336 0 0 1 1.806-.561 1.338 1.338 0 0 1-1.245 2.368zm58.24-.677a1.337 1.337 0 0 1 .552-1.806 1.338 1.338 0 0 1 1.807.551c.347.65.098 1.46-.552 1.807a1.29 1.29 0 0 1-.623.152c-.48 0-.943-.25-1.183-.704zm-54.467-5.447a1.337 1.337 0 0 1-.16-1.878 1.336 1.336 0 0 1 2.047 1.718c-.267.312-.64.472-1.024.472-.302 0-.614-.098-.863-.312zm50.596-.258a1.321 1.321 0 0 1 .152-1.878 1.33 1.33 0 0 1 1.877.151c.481.561.41 1.407-.15 1.879a1.33 1.33 0 0 1-1.879-.152zm-45.594-4.913a1.332 1.332 0 0 1 .25-1.869 1.326 1.326 0 0 1 1.868.25 1.333 1.333 0 0 1-.24 1.869c-.25.186-.534.275-.819.275-.4 0-.792-.177-1.06-.525zm40.583.17a1.335 1.335 0 0 1 1.611-2.128v.01c.588.445.704 1.28.258 1.869a1.357 1.357 0 0 1-1.068.524c-.275 0-.56-.088-.8-.275zm-34.593-4.148a1.33 1.33 0 0 1 .64-1.771 1.341 1.341 0 0 1 1.78.641c.312.668.018 1.46-.65 1.77-.178.09-.373.135-.56.135-.508 0-.98-.285-1.21-.775zm28.684.588a1.334 1.334 0 0 1-.65-1.772 1.327 1.327 0 0 1 1.771-.649 1.333 1.333 0 0 1-.57 2.545 1.22 1.22 0 0 1-.55-.124zm-21.974-3.178a1.33 1.33 0 0 1 1.006-1.593 1.33 1.33 0 0 1 1.593 1.006 1.335 1.335 0 0 1-1.006 1.593 1.323 1.323 0 0 1-1.593-1.006zm15.433.98a1.326 1.326 0 0 1-1.015-1.584 1.327 1.327 0 0 1 1.584-1.025c.72.161 1.175.873 1.024 1.593a1.34 1.34 0 0 1-1.309 1.051c-.089 0-.187-.01-.284-.035zm-6.925-.739h-.062a1.328 1.328 0 0 1-1.344-1.326c0-.74.597-1.335 1.335-1.344h.143v.009c.73 0 1.335.587 1.335 1.326 0 .739-.605 1.335-1.335 1.335h-.072zm.121 59.02h-.052c-3.167 0-6.268-.541-9.218-1.608a1.335 1.335 0 1 1 .909-2.51 24.376 24.376 0 0 0 8.309 1.447c.737 0 1.361.598 1.361 1.335s-.571 1.335-1.309 1.335zm7.097-1.006a1.335 1.335 0 0 1-.368-2.617c2.739-.79 5.3-2.045 7.613-3.734a1.335 1.335 0 0 1 1.575 2.155 26.915 26.915 0 0 1-8.45 4.144 1.325 1.325 0 0 1-.37.052zm-22.25-3.88a1.33 1.33 0 0 1-.782-.253 27.16 27.16 0 0 1-6.551-6.75 1.334 1.334 0 1 1 2.208-1.5 24.491 24.491 0 0 0 5.91 6.088 1.335 1.335 0 0 1-.785 2.416zm35.431-5.048a1.334 1.334 0 0 1-1.052-2.156 24.311 24.311 0 0 0 3.977-7.491 1.334 1.334 0 1 1 2.54.822 26.979 26.979 0 0 1-4.411 8.312 1.332 1.332 0 0 1-1.054.513zm-44.823-7.803a1.334 1.334 0 0 1-1.268-.92 27.072 27.072 0 0 1-1.33-9.313c.024-.737.643-1.336 1.377-1.292.737.024 1.315.64 1.292 1.377a24.42 24.42 0 0 0 1.198 8.398 1.335 1.335 0 0 1-1.27 1.75zm50.25-7.16l-.048-.001a1.334 1.334 0 0 1-1.288-1.38 24.418 24.418 0 0 0-1.181-8.399 1.336 1.336 0 0 1 2.539-.825 27.072 27.072 0 0 1 1.31 9.316 1.334 1.334 0 0 1-1.333 1.289zm-50.297-8.76a1.334 1.334 0 0 1-1.272-1.743 26.979 26.979 0 0 1 4.396-8.322 1.335 1.335 0 1 1 2.109 1.637 24.31 24.31 0 0 0-3.962 7.501 1.335 1.335 0 0 1-1.27.927zm45.9-6.536c-.428 0-.848-.205-1.106-.587a24.496 24.496 0 0 0-5.898-6.1 1.334 1.334 0 1 1 1.57-2.159 27.177 27.177 0 0 1 6.539 6.763 1.335 1.335 0 0 1-1.104 2.083zm-36.581-6.373a1.335 1.335 0 0 1-.79-2.411 26.958 26.958 0 0 1 8.44-4.162 1.336 1.336 0 0 1 .745 2.564 24.294 24.294 0 0 0-7.607 3.75 1.33 1.33 0 0 1-.788.259zm24.034-3.428a1.33 1.33 0 0 1-.457-.08 24.368 24.368 0 0 0-8.356-1.465h-.103a1.335 1.335 0 0 1 0-2.67h.103c3.183 0 6.301.546 9.269 1.625a1.336 1.336 0 0 1-.456 2.59z"/></g></g></svg>